<?xml version="1.0" encoding="utf-8"?>
<!-- Generator: Adobe Illustrator 27.5.0, SVG Export Plug-In . SVG Version: 6.00 Build 0)  -->
<svg version="1.1" xmlns="http://www.w3.org/2000/svg" xmlns:xlink="http://www.w3.org/1999/xlink" x="0px" y="0px"
	 viewBox="0 0 750 500" style="enable-background:new 0 0 750 500;" xml:space="preserve">
<g id="Background_Complete">
	<g>
		<g>
			<path style="fill:#EBEBEB;" d="M726.8,316.155c0,0-5.787-3.427-11.952,10.314c-6.166,13.741-8.37,21.598-8.37,21.598
				s-1.666,2.898-3.686,1.158c-2.02-1.74-4.92-6.815-8.152-5.715c-3.352,1.141-4.284,4.991-3.359,10.535
				c0.925,5.544,2.505,17.765,2.644,18.87c0.136,1.085-0.408,2.721-1.974,1.757c-1.566-0.965-10.758-10.234-14.896-5.609
				c-4.137,4.625,0.977,19.647,1.505,21.299c0.528,1.653,0.235,2.384-0.54,2.838c-0.775,0.454-3.571-2.953-6.294-5.482
				c-2.723-2.529-6.323-4.985-8.486-2.116c-2.163,2.869-2.332,14.338,9.469,32.369l6.015,7.997l9.996-1.053
				c21.254-3.558,29.568-11.461,30.208-14.996s-3.606-4.515-7.311-4.801c-3.705-0.285-8.105-0.029-8.297-0.906
				c-0.192-0.877,0.147-1.588,1.72-2.322c1.572-0.733,16.079-7.164,16.672-13.341c0.593-6.177-12.454-6.645-14.225-7.141
				c-1.771-0.496-0.938-2.006-0.048-2.642c0.906-0.648,10.958-7.775,15.66-10.856c4.701-3.081,6.898-6.377,5.463-9.613
				c-1.384-3.121-7.08-1.81-9.729-2.114c-2.648-0.304-1.649-3.494-1.649-3.494s4.279-6.949,10.193-20.799
				c5.915-13.85-0.7-15.794-0.7-15.794"/>
		</g>
		<g>
			<g>
				<path style="fill:#E0E0E0;" d="M677.216,427.844c4.384-10.155,12.479-28.072,19.349-43.491
					c6.868-15.414,13.073-29.375,17.508-39.506c2.208-5.059,3.997-9.157,5.24-12.004c0.616-1.408,1.096-2.505,1.427-3.263
					c0.162-0.363,0.288-0.644,0.378-0.846c0.087-0.19,0.139-0.284,0.139-0.284s-0.032,0.102-0.109,0.296
					c-0.083,0.205-0.2,0.49-0.35,0.858c-0.319,0.763-0.781,1.869-1.374,3.286c-1.196,2.852-2.956,6.967-5.15,12.044
					c-4.384,10.155-10.557,24.131-17.425,39.545c-6.87,15.419-14.996,33.321-19.431,43.452"/>
			</g>
		</g>
		<g>
			<g>
				<path style="fill:#E0E0E0;" d="M698.411,350.772c0.02-0.007,0.121,0.23,0.286,0.665c0.167,0.435,0.389,1.069,0.657,1.857
					c0.532,1.576,1.211,3.77,1.917,6.205c0.687,2.404,1.308,4.578,1.784,6.241c0.219,0.748,0.404,1.379,0.552,1.887
					c0.132,0.445,0.196,0.695,0.176,0.702c-0.02,0.007-0.123-0.229-0.291-0.663c-0.165-0.435-0.388-1.07-0.647-1.861
					c-0.516-1.581-1.167-3.784-1.872-6.219c-0.704-2.398-1.341-4.566-1.828-6.226c-0.223-0.747-0.411-1.378-0.562-1.885
					C698.452,351.029,698.391,350.779,698.411,350.772z"/>
			</g>
		</g>
		<g>
			<g>
				<path style="fill:#E0E0E0;" d="M704.709,368.461c-0.028-0.081,4.435-1.681,9.967-3.572c5.534-1.892,10.041-3.36,10.069-3.279
					c0.028,0.081-4.434,1.68-9.968,3.573C709.245,367.075,704.736,368.543,704.709,368.461z"/>
			</g>
		</g>
		<g>
			<g>
				<path style="fill:#E0E0E0;" d="M693.093,391.66c0-0.022,0.262-0.045,0.736-0.07c0.538-0.025,1.209-0.056,2.006-0.092
					c1.693-0.081,4.031-0.202,6.606-0.43c2.576-0.222,4.9-0.505,6.581-0.723c0.791-0.102,1.458-0.188,1.992-0.256
					c0.471-0.058,0.733-0.08,0.737-0.059c0.004,0.021-0.252,0.084-0.717,0.178c-0.465,0.094-1.141,0.219-1.979,0.354
					c-1.676,0.274-4.002,0.592-6.586,0.815c-2.582,0.229-4.929,0.315-6.626,0.34c-0.849,0.009-1.536,0.008-2.011-0.006
					C693.355,391.698,693.093,391.681,693.093,391.66z"/>
			</g>
		</g>
		<g>
			<g>
				<path style="fill:#E0E0E0;" d="M683.875,376.914c0.018-0.012,0.166,0.181,0.419,0.54c0.284,0.417,0.633,0.93,1.045,1.534
					c0.872,1.303,2.057,3.115,3.351,5.126c1.294,2.012,2.45,3.843,3.275,5.176c0.379,0.626,0.701,1.156,0.962,1.588
					c0.221,0.379,0.335,0.594,0.317,0.605c-0.018,0.012-0.166-0.181-0.419-0.54c-0.284-0.417-0.633-0.93-1.045-1.535
					c-0.871-1.303-2.057-3.115-3.351-5.127c-1.293-2.011-2.45-3.842-3.274-5.175c-0.379-0.626-0.701-1.156-0.962-1.588
					C683.97,377.14,683.857,376.926,683.875,376.914z"/>
			</g>
		</g>
		<g>
			<g>
				<path style="fill:#E0E0E0;" d="M671.018,396.091c0.018-0.012,0.206,0.237,0.529,0.696c0.351,0.511,0.804,1.17,1.347,1.961
					c1.126,1.664,2.664,3.974,4.346,6.536c1.683,2.563,3.192,4.892,4.271,6.587c0.51,0.813,0.935,1.491,1.265,2.016
					c0.293,0.48,0.446,0.75,0.428,0.762c-0.018,0.012-0.206-0.237-0.529-0.696c-0.351-0.511-0.804-1.17-1.347-1.961
					c-1.126-1.664-2.664-3.974-4.347-6.537c-1.682-2.562-3.191-4.891-4.27-6.586c-0.51-0.813-0.935-1.49-1.265-2.016
					C671.153,396.374,671,396.103,671.018,396.091z"/>
			</g>
		</g>
		<g>
			<g>
				<path style="fill:#E0E0E0;" d="M683.038,414.124c-0.001-0.021,0.33-0.06,0.93-0.113c0.655-0.054,1.509-0.124,2.539-0.209
					c2.143-0.179,5.103-0.437,8.362-0.815c3.26-0.373,6.202-0.788,8.33-1.103c1.022-0.151,1.87-0.276,2.52-0.372
					c0.596-0.085,0.927-0.123,0.931-0.101c0.004,0.021-0.32,0.099-0.91,0.221c-0.59,0.122-1.446,0.285-2.506,0.469
					c-2.121,0.371-5.063,0.821-8.33,1.195c-3.264,0.378-6.232,0.602-8.382,0.725c-1.075,0.059-1.945,0.097-2.548,0.111
					C683.372,414.147,683.039,414.145,683.038,414.124z"/>
			</g>
		</g>
	</g>
	<g>
		<g>
			<path style="fill:#EBEBEB;" d="M144.079,144.344c0,0-6.268,2.437,0.736,15.77c7.004,13.333,11.825,19.917,11.825,19.917
				s1.251,3.1-1.364,3.615c-2.615,0.515-8.399-0.336-9.528,2.885c-1.171,3.341,1.283,6.451,6.215,9.145
				c4.932,2.695,15.523,8.995,16.478,9.568c0.938,0.563,1.889,2.001,0.164,2.637c-1.726,0.637-14.693,2.147-13.608,8.257
				c1.085,6.11,16.06,11.359,17.686,11.964c1.626,0.605,2.021,1.287,1.9,2.177c-0.121,0.89-4.528,0.987-8.198,1.567
				c-3.671,0.581-7.825,1.897-6.903,5.37c0.921,3.473,9.84,10.686,31.311,12.531l10.005,0.204l5.342-8.514
				c10.321-18.918,9.235-30.337,6.849-33.023c-2.386-2.686-5.778,0.049-8.29,2.788c-2.511,2.739-5.026,6.359-5.835,5.968
				c-0.809-0.39-1.159-1.096-0.765-2.786c0.394-1.69,4.289-17.072-0.205-21.351c-4.494-4.279-12.915,5.696-14.399,6.783
				c-1.484,1.087-2.157-0.5-2.108-1.593c0.05-1.113,0.647-13.421,1.126-19.021c0.478-5.6-0.758-9.363-4.191-10.232
				c-3.31-0.838-5.794,4.453-7.668,6.349c-1.874,1.896-3.767-0.859-3.767-0.859s-2.826-7.656-10.072-20.858
				c-7.245-13.203-12.858-9.199-12.858-9.199"/>
		</g>
		<g>
			<g>
				<path style="fill:#E0E0E0;" d="M201.342,252.298c-5.283-9.717-14.382-27.146-22.272-42.069
					c-7.887-14.918-15.041-28.418-20.274-38.161c-2.617-4.86-4.737-8.798-6.209-11.532c-0.727-1.353-1.294-2.408-1.686-3.137
					c-0.185-0.352-0.329-0.624-0.432-0.82c-0.096-0.186-0.138-0.284-0.138-0.284s0.061,0.089,0.166,0.269
					c0.109,0.192,0.262,0.46,0.459,0.805c0.404,0.722,0.988,1.768,1.737,3.109c1.506,2.702,3.657,6.626,6.297,11.486
					c5.283,9.717,12.468,23.202,20.355,38.12c7.89,14.923,16.958,32.367,22.191,42.11"/>
			</g>
		</g>
		<g>
			<g>
				<path style="fill:#E0E0E0;" d="M153.79,188.048c0.007-0.02,0.256,0.047,0.7,0.186c0.445,0.137,1.082,0.354,1.866,0.63
					c1.568,0.554,3.714,1.374,6.065,2.322c2.316,0.943,4.409,1.796,6.011,2.449c0.724,0.29,1.334,0.534,1.825,0.73
					c0.432,0.171,0.668,0.275,0.661,0.295c-0.007,0.02-0.256-0.045-0.701-0.181c-0.444-0.139-1.082-0.355-1.864-0.639
					c-1.563-0.57-3.697-1.418-6.048-2.366c-2.321-0.926-4.42-1.764-6.026-2.405c-0.726-0.286-1.338-0.527-1.83-0.721
					C154.018,188.174,153.783,188.068,153.79,188.048z"/>
			</g>
		</g>
		<g>
			<g>
				<path style="fill:#E0E0E0;" d="M171.594,194.012c-0.081-0.028,1.415-4.527,3.342-10.046c1.927-5.522,3.555-9.973,3.636-9.945
					c0.081,0.028-1.415,4.526-3.342,10.048C173.303,189.587,171.675,194.04,171.594,194.012z"/>
			</g>
		</g>
		<g>
			<g>
				<path style="fill:#E0E0E0;" d="M182.675,217.471c-0.017-0.013,0.126-0.234,0.399-0.622c0.312-0.438,0.702-0.986,1.166-1.635
					c0.982-1.382,2.33-3.296,3.739-5.462c1.415-2.164,2.628-4.167,3.494-5.624c0.408-0.685,0.752-1.263,1.028-1.725
					c0.245-0.406,0.389-0.626,0.408-0.616c0.019,0.01-0.09,0.25-0.302,0.674c-0.213,0.424-0.532,1.033-0.943,1.776
					c-0.819,1.487-2.005,3.514-3.424,5.684c-1.414,2.173-2.794,4.072-3.823,5.423c-0.517,0.673-0.942,1.214-1.246,1.578
					C182.867,217.288,182.692,217.484,182.675,217.471z"/>
			</g>
		</g>
		<g>
			<g>
				<path style="fill:#E0E0E0;" d="M165.383,215.621c0.002-0.021,0.245-0.019,0.683,0.003c0.504,0.034,1.123,0.076,1.853,0.125
					c1.563,0.119,3.72,0.304,6.101,0.528c2.382,0.224,4.536,0.444,6.094,0.619c0.726,0.088,1.342,0.162,1.843,0.223
					c0.434,0.06,0.674,0.103,0.672,0.124c-0.002,0.021-0.245,0.019-0.683-0.003c-0.504-0.034-1.123-0.076-1.853-0.125
					c-1.563-0.119-3.72-0.304-6.102-0.528c-2.381-0.224-4.535-0.444-6.093-0.619c-0.726-0.088-1.342-0.162-1.843-0.223
					C165.621,215.685,165.382,215.642,165.383,215.621z"/>
			</g>
		</g>
		<g>
			<g>
				<path style="fill:#E0E0E0;" d="M172.535,237.573c0.002-0.021,0.313-0.016,0.874,0.013c0.619,0.039,1.417,0.09,2.375,0.151
					c2.004,0.141,4.771,0.357,7.825,0.615c3.055,0.258,5.819,0.509,7.818,0.706c0.955,0.101,1.75,0.185,2.366,0.25
					c0.558,0.066,0.866,0.112,0.864,0.134c-0.002,0.021-0.313,0.016-0.874-0.013c-0.619-0.039-1.417-0.09-2.375-0.151
					c-2.004-0.141-4.771-0.357-7.826-0.615c-3.054-0.258-5.818-0.509-7.817-0.706c-0.954-0.101-1.75-0.184-2.366-0.249
					C172.841,237.641,172.533,237.595,172.535,237.573z"/>
			</g>
		</g>
		<g>
			<g>
				<path style="fill:#E0E0E0;" d="M194.142,239.248c-0.018-0.012,0.156-0.297,0.485-0.801c0.362-0.549,0.834-1.264,1.403-2.127
					c1.183-1.797,2.806-4.285,4.521-7.081c1.72-2.795,3.209-5.366,4.274-7.234c0.512-0.897,0.938-1.642,1.264-2.212
					c0.301-0.521,0.476-0.805,0.495-0.795c0.019,0.01-0.12,0.313-0.388,0.852c-0.268,0.539-0.668,1.313-1.178,2.261
					c-1.017,1.898-2.479,4.491-4.202,7.291c-1.717,2.802-3.373,5.275-4.604,7.042c-0.617,0.882-1.124,1.591-1.486,2.073
					C194.366,238.999,194.159,239.26,194.142,239.248z"/>
			</g>
		</g>
	</g>
	<g>
		<g>
			<g>
				<g>
					<g>
						<path style="fill:#EBEBEB;" d="M84.442,218.52c2.628-1.992,5.481-3.594,8.471-4.795l0.902-8.981l14.821-1.826l3.056,8.492
							c3.193,0.438,6.349,1.299,9.383,2.594l6.985-5.71l11.771,9.189l-3.842,8.161c1.993,2.629,3.595,5.483,4.795,8.474l8.98,0.902
							l1.827,14.82l-8.492,3.057c-0.439,3.192-1.299,6.348-2.594,9.382l5.709,6.986l-9.187,11.771l-8.162-3.842
							c-2.629,1.993-5.482,3.594-8.473,4.794l-0.902,8.981l-14.82,1.826l-3.057-8.493c-3.192-0.439-6.348-1.3-9.382-2.594
							l-6.985,5.71l-11.771-9.188l3.842-8.162c-1.993-2.629-3.595-5.482-4.795-8.473l-8.98-0.902l-1.826-14.82l8.493-3.057
							c0.438-3.192,1.3-6.348,2.594-9.382l-5.71-6.986l9.187-11.771L84.442,218.52L84.442,218.52z M94.443,237.465
							c-5.444,6.975-4.203,17.041,2.771,22.484c6.974,5.444,17.041,4.202,22.484-2.772c5.443-6.974,4.203-17.041-2.771-22.484
							C109.952,229.251,99.886,230.492,94.443,237.465z"/>
					</g>
				</g>
			</g>
		</g>
	</g>
	<g>
		<g>
			<g>
				<g>
					<g>
						<path style="fill:#F5F5F5;" d="M511.582,50.05c2.043-1.235,4.219-2.171,6.462-2.808l1.331-6.396l10.807-0.189L531.738,47
							c2.265,0.558,4.472,1.417,6.557,2.58l5.462-3.58l7.776,7.508l-3.385,5.583c1.235,2.044,2.171,4.22,2.808,6.463l6.396,1.331
							l0.19,10.807l-6.345,1.556c-0.558,2.264-1.417,4.471-2.579,6.557l3.58,5.462l-7.507,7.776l-5.584-3.385
							c-2.044,1.235-4.219,2.171-6.463,2.808l-1.331,6.396l-10.806,0.19l-1.556-6.345c-2.264-0.558-4.471-1.418-6.557-2.58
							l-5.462,3.58l-7.776-7.508l3.385-5.583c-1.235-2.044-2.172-4.219-2.809-6.463l-6.396-1.331l-0.189-10.806l6.345-1.556
							c0.558-2.264,1.418-4.471,2.579-6.556l-3.58-5.462l7.507-7.776L511.582,50.05L511.582,50.05z M517.343,64.446
							c-4.448,4.607-4.319,11.947,0.288,16.395c4.607,4.448,11.947,4.319,16.395-0.288c4.448-4.607,4.319-11.947-0.288-16.395
							C529.131,59.71,521.791,59.839,517.343,64.446z"/>
					</g>
				</g>
			</g>
		</g>
	</g>
	<g>
		<g>
			<g>
				<g>
					<g>
						<path style="fill:#F5F5F5;" d="M645.078,146.068c1.288-0.779,2.66-1.369,4.075-1.771l0.839-4.033l6.814-0.119l0.981,4.001
							c1.428,0.352,2.82,0.894,4.135,1.627l3.444-2.257l4.903,4.734l-2.135,3.521c0.779,1.289,1.369,2.661,1.771,4.076l4.033,0.839
							l0.12,6.814l-4.001,0.981c-0.352,1.428-0.894,2.819-1.626,4.134l2.257,3.444l-4.733,4.903l-3.521-2.135
							c-1.289,0.779-2.66,1.369-4.075,1.771l-0.839,4.033l-6.814,0.12l-0.981-4.001c-1.428-0.352-2.819-0.894-4.134-1.627
							l-3.444,2.258l-4.903-4.734l2.135-3.521c-0.779-1.289-1.369-2.66-1.771-4.075l-4.033-0.839l-0.12-6.814l4.001-0.981
							c0.352-1.428,0.894-2.819,1.626-4.134l-2.257-3.444l4.733-4.903L645.078,146.068L645.078,146.068z M648.711,155.145
							c-2.805,2.905-2.723,7.533,0.182,10.338c2.905,2.805,7.533,2.723,10.338-0.182c2.804-2.905,2.723-7.533-0.182-10.338
							C656.143,152.159,651.515,152.24,648.711,155.145z"/>
					</g>
				</g>
			</g>
		</g>
	</g>
	<g>
		<g>
			<g>
				<g>
					<g>
						<path style="fill:#F5F5F5;" d="M74.176,115.269c2.506-1.514,5.173-2.662,7.924-3.444l1.632-7.844l13.252-0.232l1.907,7.78
							c2.777,0.684,5.484,1.738,8.041,3.163l6.698-4.39l9.535,9.207l-4.151,6.846c1.515,2.506,2.663,5.175,3.444,7.926l7.843,1.632
							l0.233,13.252l-7.781,1.908c-0.684,2.777-1.738,5.482-3.163,8.04l4.389,6.698l-9.205,9.535l-6.847-4.151
							c-2.506,1.514-5.174,2.662-7.926,3.443l-1.632,7.844l-13.252,0.233l-1.907-7.781c-2.777-0.684-5.483-1.738-8.04-3.163
							l-6.698,4.39l-9.535-9.206l4.151-6.847c-1.514-2.506-2.663-5.174-3.444-7.925l-7.843-1.632l-0.232-13.252l7.781-1.908
							c0.684-2.776,1.739-5.483,3.163-8.04l-4.39-6.698l9.205-9.535L74.176,115.269L74.176,115.269z M81.241,132.922
							c-5.455,5.65-5.296,14.651,0.353,20.105c5.649,5.454,14.65,5.296,20.104-0.354c5.454-5.649,5.296-14.65-0.354-20.105
							C95.696,127.115,86.695,127.273,81.241,132.922z"/>
					</g>
				</g>
			</g>
		</g>
	</g>
	<g>
		<g>
			<g>
				<g>
					<g>
						<path style="fill:#EBEBEB;" d="M650.01,206.692c2.043-1.235,4.218-2.171,6.462-2.808l1.331-6.396l10.807-0.189l1.555,6.345
							c2.265,0.558,4.472,1.417,6.557,2.58l5.462-3.58l7.776,7.508l-3.385,5.583c1.235,2.044,2.171,4.22,2.808,6.464l6.396,1.331
							l0.19,10.807l-6.345,1.556c-0.558,2.264-1.417,4.471-2.579,6.556l3.58,5.462l-7.507,7.776l-5.584-3.385
							c-2.044,1.235-4.219,2.171-6.463,2.808l-1.331,6.396l-10.807,0.19l-1.555-6.345c-2.265-0.558-4.471-1.418-6.557-2.58
							l-5.462,3.58l-7.776-7.508l3.385-5.583c-1.235-2.044-2.172-4.219-2.809-6.463l-6.396-1.331l-0.19-10.807l6.345-1.556
							c0.558-2.264,1.418-4.471,2.58-6.556l-3.58-5.462l7.507-7.776L650.01,206.692L650.01,206.692z M655.771,221.088
							c-4.448,4.607-4.319,11.947,0.288,16.395c4.607,4.448,11.947,4.319,16.395-0.288c4.448-4.607,4.319-11.947-0.288-16.395
							C667.559,216.352,660.219,216.482,655.771,221.088z"/>
					</g>
				</g>
			</g>
		</g>
	</g>
	<g>
		<g>
			<g>
				<g>
					<g>
						<path style="fill:#EBEBEB;" d="M414.909,78.916c3.147-1.902,6.498-3.344,9.954-4.326l2.05-9.853l16.647-0.292l2.396,9.773
							c3.489,0.86,6.888,2.183,10.101,3.974l8.413-5.515l11.978,11.565l-5.215,8.6c1.903,3.148,3.345,6.5,4.326,9.956l9.852,2.05
							l0.292,16.647l-9.774,2.396c-0.859,3.488-2.183,6.887-3.973,10.099l5.514,8.414l-11.563,11.977l-8.601-5.215
							c-3.148,1.902-6.499,3.344-9.956,4.325l-2.051,9.853l-16.646,0.292l-2.396-9.775c-3.488-0.86-6.887-2.184-10.1-3.974
							l-8.413,5.515l-11.978-11.565l5.215-8.6c-1.902-3.148-3.345-6.499-4.326-9.956l-9.852-2.05l-0.292-16.646l9.774-2.397
							c0.859-3.488,2.184-6.887,3.973-10.099l-5.514-8.414L406.307,73.7L414.909,78.916L414.909,78.916z M423.783,101.091
							c-6.852,7.097-6.653,18.403,0.444,25.255c7.096,6.851,18.403,6.652,25.254-0.444c6.851-7.097,6.653-18.403-0.444-25.255
							C441.941,93.797,430.634,93.995,423.783,101.091z"/>
					</g>
				</g>
			</g>
		</g>
	</g>
</g>
<g id="Background_Simple" style="display:none;">
	<path style="display:inline;fill:#F5F5F5;" d="M600.127,38.908l-1.551,1.099c-13.071,9.266-20.237,24.844-18.109,40.577
		c0.273,2.022,0.693,4.026,1.263,5.991c4.102,14.15,15.86,25.877,30.147,30.067c8.402,2.464,17.886,2.643,24.796,7.963
		c8.992,6.924,10.17,19.685,10.621,30.946c0.452,11.261,1.663,24.028,10.686,30.913c5.651,4.312,13.317,5.264,20.409,4.377
		c18.777-2.347,34.693-16.684,41.878-33.985c7.185-17.301,6.531-37.02,1.542-55.038c-6.99-25.24-22.905-48.582-45.846-61.658
		C653.02,27.085,622.924,25.509,600.127,38.908z"/>
	<path style="display:inline;fill:#F5F5F5;" d="M146.197,47.48l1.551,1.099c13.071,9.266,20.237,24.844,18.109,40.577
		c-0.273,2.022-0.693,4.026-1.262,5.991c-4.101,14.15-15.86,25.877-30.146,30.066c-8.402,2.464-17.886,2.643-24.796,7.963
		c-8.992,6.924-10.17,19.685-10.621,30.946c-0.452,11.261-1.663,24.028-10.686,30.913c-5.651,4.312-13.317,5.263-20.409,4.377
		c-18.777-2.347-34.693-16.684-41.878-33.985s-6.532-37.021-1.542-55.038c6.99-25.24,22.905-48.582,45.846-61.658
		S123.4,34.081,146.197,47.48z"/>
	
		<ellipse transform="matrix(0.2321 -0.9727 0.9727 0.2321 242.9332 445.5635)" style="display:inline;fill:#F5F5F5;" cx="403.669" cy="68.917" rx="23.88" ry="23.88"/>
</g>
<g id="Floor">
	<g>
		<path style="fill:#263238;" d="M729.527,427.999c0,0.144-158.798,0.26-354.639,0.26c-195.909,0-354.673-0.116-354.673-0.26
			c0-0.144,158.764-0.26,354.673-0.26C570.73,427.738,729.527,427.855,729.527,427.999z"/>
	</g>
</g>
<g id="Device_2">
	<g>
		<g>
			<g>
				<g>
					<g>
						<g>
							<g>
								<g>
									<g>
										<g>
											<path style="fill:#455A64;" d="M566.442,120.159H218.275c-6.003,0-10.868,4.865-10.868,10.868v245.918
												c0,6.003,4.865,10.869,10.868,10.869h133.626c0,0,8.5,26.284-17.85,39.884h124.947c0,0-29.75-10.199-22.101-39.884
												h129.545c6.002,0,10.867-4.866,10.867-10.868V131.027C577.31,125.025,572.445,120.159,566.442,120.159z"/>
										</g>
									</g>
								</g>
							</g>
							<g>
								<g>
									<g>
										<g>
											<path style="fill:#263238;" d="M397.007,361.95c4.736,6.769-2.676,14.181-9.447,9.446
												c-0.223-0.157-0.426-0.36-0.582-0.583c-4.723-6.768,2.68-14.17,9.446-9.445
												C396.648,361.524,396.852,361.727,397.007,361.95z"/>
										</g>
									</g>
								</g>
							</g>
						</g>
						<g>
							<g>
								<path style="fill:#FFFFFF;" d="M571.316,342.824H213.402V134.362c0-5.356,4.342-9.697,9.697-9.697h338.519
									c5.356,0,9.697,4.342,9.697,9.697V342.824z"/>
							</g>
						</g>
					</g>
					<g>
						<path style="fill:#EBEBEB;" d="M571.316,142.792H213.402v-8.974c0-5.055,4.098-9.154,9.154-9.154H563.8
							c4.151,0,7.516,3.365,7.516,7.516V142.792z"/>
					</g>
					<g>
						<g>
							<circle style="fill:#E0E0E0;" cx="224.8" cy="134.109" r="2.514"/>
						</g>
						<g>
							<circle style="fill:#E0E0E0;" cx="232.295" cy="134.109" r="2.514"/>
						</g>
						<g>
							<circle style="fill:#E0E0E0;" cx="239.423" cy="134.109" r="2.514"/>
						</g>
					</g>
				</g>
				<g>
					<g>
						<path style="fill:#263238;" d="M504.196,387.848c0,0.116-49.544,0.209-110.646,0.209c-61.123,0-110.657-0.093-110.657-0.209
							c0-0.115,49.534-0.209,110.657-0.209C454.651,387.639,504.196,387.733,504.196,387.848z"/>
					</g>
				</g>
			</g>
			<rect x="213.523" y="172.126" style="fill:#F5F5F5;" width="356.976" height="79.688"/>
			<rect x="222.286" y="151.141" style="fill:#F5F5F5;" width="51.517" height="13.485"/>
			<rect x="533.818" y="151.141" style="fill:#F5F5F5;" width="28.208" height="13.485"/>
			<rect x="479.182" y="151.141" style="fill:#F5F5F5;" width="46.161" height="13.485"/>
			<rect x="423.423" y="151.141" style="fill:#F5F5F5;" width="46.161" height="13.485"/>
			<rect x="230.902" y="274.268" style="fill:#F5F5F5;" width="314.623" height="14.125"/>
			<rect x="230.902" y="300.554" style="fill:#F5F5F5;" width="314.623" height="14.125"/>
		</g>
		<g>
			<g>
				<g>
					<g>
						<polygon style="fill:#FF725E;" points="354.786,220.049 363.458,211.377 378.582,225.161 405.235,198.538 413.287,207.21 
							377.343,241.886 						"/>
					</g>
				</g>
			</g>
		</g>
		<g>
			<g>
				<path style="fill:#263238;" d="M367.255,199.715c-0.11,0.093-1.49-1.357-3.082-3.238c-1.593-1.882-2.794-3.482-2.684-3.574
					c0.11-0.093,1.489,1.356,3.082,3.238C366.163,198.021,367.365,199.622,367.255,199.715z"/>
			</g>
			<g>
				<path style="fill:#263238;" d="M378.888,198.447c-0.144,0.007-0.459-4.331-0.705-9.687c-0.246-5.358-0.328-9.705-0.185-9.712
					c0.144-0.007,0.459,4.33,0.705,9.688C378.949,194.092,379.032,198.44,378.888,198.447z"/>
			</g>
			<g>
				<path style="fill:#263238;" d="M396.86,192.508c0.113,0.089-1.145,1.863-2.808,3.962c-1.664,2.099-3.104,3.728-3.217,3.639
					c-0.113-0.089,1.145-1.863,2.809-3.962C395.307,194.048,396.747,192.419,396.86,192.508z"/>
			</g>
		</g>
	</g>
</g>
<g id="Device_3">
	<g>
		<g>
			<g>
				<g>
					<g>
						<g>
							<g>
								<g>
									<g>
										<g>
											<g>
												<g>
													<g>
														<g>
															<g>
																<g>
																	<g>
																		<g>
																			<g>
																				<path style="fill:#E0E0E0;" d="M636.17,427.87l-148.273,0c-4.013,0-7.266-3.253-7.266-7.266l0-219.108
																					c0-4.013,3.253-7.266,7.266-7.266l148.273,0c4.013,0,7.266,3.253,7.266,7.266l0,219.107
																					C643.436,424.617,640.183,427.87,636.17,427.87z"/>
																				<g>
																					<path style="fill:#263238;" d="M636.17,427.87c0,0,0.17-0.018,0.506-0.039
																						c0.334-0.022,0.837-0.085,1.475-0.269c1.238-0.355,3.188-1.315,4.416-3.632
																						c0.302-0.571,0.52-1.224,0.672-1.928c0.141-0.709,0.137-1.469,0.132-2.273
																						c-0.004-1.604-0.008-3.358-0.012-5.258c-0.007-3.801-0.015-8.186-0.024-13.122
																						c-0.019-19.752-0.048-48.322-0.083-83.625c-0.01-17.654-0.02-36.99-0.032-57.747
																						c-0.004-10.379-0.008-21.114-0.013-32.171c-0.002-5.529-0.004-11.138-0.006-16.824
																						c-0.001-2.843-0.002-5.705-0.003-8.586c-0.009-0.727,0.027-1.431-0.113-2.116
																						c-0.13-0.684-0.329-1.364-0.664-1.982c-0.635-1.252-1.666-2.294-2.899-2.978
																						c-0.625-0.329-1.294-0.568-1.986-0.714c-0.697-0.137-1.4-0.138-2.143-0.135c-1.468,0-2.94,0.001-4.417,0.001
																						c-2.953,0.001-5.924,0.002-8.912,0.002c-5.976,0.001-12.02,0.003-18.129,0.004
																						c-12.217,0.002-24.692,0.004-37.391,0.006c-25.398,0.002-51.695,0.004-78.629,0.005
																						c-1.627,0.005-3.237,0.577-4.488,1.611c-1.248,1.036-2.111,2.509-2.412,4.095
																						c-0.169,0.786-0.114,1.609-0.126,2.453l0,2.505c0,1.668,0,3.334,0,4.997c0,6.652-0.001,13.26-0.001,19.819
																						c-0.001,13.12-0.003,26.047-0.004,38.749c-0.005,25.404-0.01,49.909-0.015,73.253
																						c-0.008,23.343-0.016,45.525-0.024,66.285c-0.001,2.595-0.002,5.168-0.004,7.718
																						c-0.001,1.275-0.001,2.544-0.002,3.808c-0.04,1.271,0.08,2.48,0.573,3.611c0.96,2.239,3.118,3.898,5.498,4.195
																						c0.587,0.089,1.189,0.077,1.806,0.078l1.829,0.001c1.217,0.001,2.427,0.001,3.632,0.002
																						c9.636,0.006,18.883,0.011,27.71,0.017c35.302,0.035,63.87,0.063,83.62,0.083
																						c9.868,0.021,17.531,0.038,22.734,0.049c2.594,0.011,4.574,0.02,5.912,0.026
																						C635.488,427.852,636.17,427.87,636.17,427.87s-0.682,0.018-2.014,0.027c-1.338,0.006-3.318,0.014-5.912,0.026
																						c-5.203,0.011-12.867,0.028-22.734,0.049c-19.75,0.02-48.318,0.048-83.62,0.083
																						c-8.827,0.005-18.074,0.011-27.71,0.017c-1.204,0.001-2.415,0.001-3.632,0.002l-1.829,0.001
																						c-0.604-0.001-1.234,0.014-1.863-0.08c-2.519-0.313-4.805-2.065-5.824-4.436
																						c-0.524-1.176-0.652-2.527-0.611-3.776c-0.001-1.264-0.001-2.533-0.002-3.808
																						c-0.001-2.55-0.002-5.123-0.004-7.718c-0.008-20.76-0.016-42.942-0.024-66.285
																						c-0.005-23.344-0.01-47.848-0.015-73.253c-0.001-12.702-0.003-25.63-0.004-38.749
																						c0-6.56-0.001-13.168-0.001-19.819c0-1.663,0-3.329,0-4.997v-2.505c0.012-0.822-0.047-1.689,0.134-2.549
																						c0.323-1.704,1.251-3.287,2.591-4.399c1.341-1.111,3.076-1.727,4.82-1.731
																						c26.934,0.002,53.23,0.003,78.629,0.005c12.699,0.002,25.174,0.004,37.391,0.006
																						c6.109,0.001,12.153,0.003,18.129,0.004c2.988,0.001,5.959,0.001,8.912,0.002c1.477,0,2.949,0.001,4.417,0.001
																						c0.723-0.003,1.494-0.003,2.236,0.145c0.74,0.156,1.456,0.413,2.123,0.765
																						c1.318,0.731,2.417,1.844,3.095,3.182c0.356,0.66,0.57,1.387,0.708,2.118c0.149,0.737,0.11,1.489,0.119,2.198
																						c-0.001,2.881-0.002,5.743-0.003,8.586c-0.002,5.686-0.004,11.295-0.006,16.824
																						c-0.005,11.057-0.009,21.792-0.013,32.171c-0.011,20.758-0.022,40.094-0.032,57.747
																						c-0.035,35.302-0.063,63.873-0.083,83.625c-0.009,4.936-0.017,9.32-0.024,13.122
																						c-0.004,1.9-0.009,3.654-0.012,5.258c0.001,0.798,0.001,1.576-0.147,2.296
																						c-0.158,0.714-0.384,1.376-0.694,1.953c-1.262,2.343-3.244,3.294-4.495,3.635
																						c-0.645,0.177-1.152,0.231-1.488,0.245C636.341,427.87,636.17,427.87,636.17,427.87z"/>
																				</g>
																			</g>
																		</g>
																	</g>
																</g>
																<g>
																	<g>
																		<g>
																			<g>
																				<path style="fill:#263238;" d="M636.17,427.87c0,0,0.17-0.014,0.506-0.034c0.169-0.002,0.376-0.033,0.624-0.075
																					c0.25-0.028,0.533-0.101,0.853-0.189c0.634-0.189,1.414-0.499,2.214-1.075c0.792-0.574,1.621-1.406,2.217-2.558
																					c0.303-0.573,0.523-1.227,0.676-1.932c0.142-0.711,0.139-1.474,0.135-2.277
																					c-0.002-1.604-0.005-3.358-0.008-5.258c-0.004-3.801-0.009-8.186-0.015-13.122
																					c-0.012-19.748-0.03-48.32-0.052-83.625c-0.006-17.653-0.013-36.99-0.02-57.747
																					c-0.003-10.379-0.005-21.113-0.008-32.171c-0.001-5.529-0.002-11.138-0.004-16.824
																					c0-2.843-0.001-5.705-0.002-8.586c-0.009-0.724,0.028-1.437-0.114-2.131c-0.132-0.693-0.333-1.382-0.672-2.007
																					c-0.643-1.268-1.686-2.323-2.936-3.016c-0.633-0.333-1.31-0.576-2.012-0.724
																					c-0.706-0.139-1.421-0.14-2.16-0.137c-1.468,0-2.94,0.001-4.417,0.001c-2.953,0.001-5.924,0.001-8.912,0.001
																					c-5.976,0.001-12.02,0.002-18.129,0.003c-12.217,0.001-24.692,0.003-37.391,0.004
																					c-25.398,0.001-51.695,0.002-78.629,0.003c-1.649,0.005-3.282,0.585-4.549,1.633
																					c-1.265,1.05-2.14,2.544-2.445,4.151c-0.171,0.8-0.115,1.631-0.127,2.47v2.505c0,1.668,0,3.334,0,4.997
																					c0,6.652,0,13.26-0.001,19.819c-0.001,13.12-0.002,26.047-0.003,38.749
																					c-0.003,25.404-0.007,49.909-0.009,73.253c-0.005,23.343-0.01,45.526-0.015,66.285
																					c-0.001,2.595-0.001,5.168-0.002,7.718c0,1.275-0.001,2.544-0.001,3.808c0.002,0.635-0.015,1.259,0.085,1.867
																					c0.073,0.615,0.27,1.204,0.495,1.774c0.971,2.263,3.153,3.94,5.559,4.24c0.595,0.09,1.202,0.077,1.816,0.078
																					c0.611,0,1.221,0,1.829,0.001c1.216,0,2.427,0.001,3.632,0.001c9.636,0.004,18.883,0.007,27.71,0.011
																					c35.305,0.022,63.874,0.04,83.62,0.052c9.87,0.013,17.535,0.024,22.734,0.031
																					c2.597,0.007,4.578,0.012,5.912,0.016C635.488,427.859,636.17,427.87,636.17,427.87s-0.682,0.011-2.014,0.017
																					c-1.335,0.004-3.315,0.009-5.912,0.016c-5.2,0.007-12.864,0.018-22.734,0.031
																					c-19.746,0.012-48.315,0.03-83.62,0.052c-8.827,0.003-18.074,0.007-27.71,0.011
																					c-1.204,0-2.415,0.001-3.632,0.001c-0.608,0-1.218,0-1.829,0.001c-0.606-0.001-1.231,0.014-1.852-0.079
																					c-2.493-0.31-4.756-2.045-5.764-4.391c-0.234-0.591-0.439-1.202-0.515-1.84
																					c-0.104-0.634-0.086-1.279-0.089-1.906c0-1.264-0.001-2.533-0.001-3.808c-0.001-2.55-0.001-5.123-0.002-7.718
																					c-0.005-20.759-0.01-42.942-0.015-66.285c-0.003-23.343-0.006-47.848-0.01-73.253
																					c-0.001-12.702-0.002-25.63-0.003-38.749c0-6.56,0-13.168-0.001-19.819c0-1.663,0-3.329,0-4.997v-2.505
																					c0.012-0.826-0.046-1.685,0.133-2.531c0.319-1.682,1.235-3.245,2.558-4.343
																					c1.325-1.097,3.036-1.704,4.758-1.709c26.934,0.001,53.23,0.002,78.629,0.003
																					c12.699,0.001,25.174,0.003,37.391,0.004c6.109,0.001,12.153,0.002,18.129,0.003
																					c2.988,0,5.959,0.001,8.912,0.001c1.477,0,2.949,0.001,4.417,0.001c0.726-0.003,1.485-0.002,2.219,0.143
																					c0.731,0.154,1.438,0.408,2.097,0.755c1.303,0.722,2.389,1.822,3.059,3.144
																					c0.352,0.652,0.563,1.371,0.699,2.093c0.148,0.727,0.109,1.47,0.118,2.183c0,2.881-0.001,5.743-0.002,8.586
																					c-0.001,5.686-0.002,11.295-0.004,16.824c-0.003,11.057-0.006,21.792-0.008,32.171
																					c-0.007,20.758-0.014,40.094-0.02,57.747c-0.022,35.304-0.04,63.876-0.052,83.625
																					c-0.006,4.936-0.011,9.321-0.015,13.122c-0.003,1.9-0.005,3.654-0.008,5.258
																					c0.001,0.799,0.002,1.574-0.144,2.291c-0.157,0.712-0.382,1.372-0.69,1.949
																					c-0.607,1.16-1.446,1.994-2.247,2.568c-0.809,0.576-1.595,0.881-2.234,1.066
																					c-0.323,0.086-0.607,0.156-0.859,0.182c-0.249,0.04-0.457,0.068-0.627,0.067
																					C636.34,427.867,636.17,427.87,636.17,427.87z"/>
																			</g>
																		</g>
																	</g>
																</g>
															</g>
														</g>
													</g>
												</g>
											</g>
										</g>
									</g>
									<g>
										<g>
											<g>
												<g>
													<g>
														<g>
															<g>
																<g>
																	<g>
																		<g>
																			<path style="fill:#FFFFFF;" d="M568.281,416.129c0,3.45-2.797,6.247-6.247,6.247
																				c-3.45,0-6.247-2.797-6.247-6.247c0-3.45,2.797-6.247,6.247-6.247
																				C565.484,409.882,568.281,412.679,568.281,416.129z"/>
																		</g>
																	</g>
																</g>
															</g>
														</g>
													</g>
												</g>
											</g>
										</g>
									</g>
								</g>
							</g>
						</g>
					</g>
				</g>
				<g>
					<g>
						<path style="fill:#EBEBEB;" d="M582.374,205.461h-33.25c-1.281,0-2.319-1.038-2.319-2.319l0,0
							c0-1.281,1.038-2.319,2.319-2.319h33.25c1.281,0,2.319,1.038,2.319,2.319l0,0
							C584.693,204.423,583.655,205.461,582.374,205.461z"/>
					</g>
				</g>
			</g>
		</g>
		<g>
			<g>
				<g>
					<g>
						<g>
							<g>
								<g>
									<g>
										<g>
											<g>
												<g>
													<path style="fill:#FFFFFF;" d="M635.73,406.016l-147.673,0c-1.343,0-2.432-1.089-2.432-2.432l0-190.253
														c0-1.343,1.089-2.432,2.432-2.432l147.673,0c1.343,0,2.432,1.089,2.432,2.432l0,190.253
														C638.162,404.927,637.073,406.016,635.73,406.016z"/>
													<g>
														<path style="fill:#263238;" d="M635.73,406.016c-0.001-0.013,0.153,0.003,0.445-0.056
															c0.287-0.057,0.73-0.197,1.165-0.592c0.428-0.384,0.833-1.07,0.783-1.947c-0.004-0.875-0.008-1.889-0.013-3.039
															c-0.011-4.611-0.028-11.398-0.049-20.137c-0.02-17.494-0.048-42.796-0.083-74.059
															c-0.01-15.634-0.02-32.758-0.032-51.141c-0.004-9.192-0.009-18.698-0.013-28.491
															c-0.001-2.448-0.002-4.914-0.003-7.397c0-1.242-0.001-2.488-0.002-3.738l-0.001-1.879
															c0.034-0.607-0.133-1.159-0.502-1.607c-0.361-0.441-0.899-0.732-1.468-0.788c-0.583-0.023-1.251-0.006-1.873-0.011
															c-1.267,0-2.539,0.001-3.814,0.001c-2.551,0.001-5.119,0.002-7.703,0.003c-41.341,0.006-86.79,0.013-134.495,0.021
															c-0.67-0.004-1.329,0.312-1.733,0.845c-0.203,0.263-0.347,0.572-0.413,0.897c-0.065,0.312-0.036,0.684-0.043,1.061
															c0,1.487,0,2.971,0,4.454c0,2.964,0,5.92,0,8.865c0,5.891-0.001,11.743-0.001,17.552
															c-0.001,11.619-0.003,23.067-0.004,34.317c-0.005,22.498-0.01,44.2-0.015,64.873
															c-0.008,20.673-0.016,40.317-0.024,58.703l0,0.861c0.002,0.262,0.049,0.522,0.139,0.766
															c0.18,0.488,0.535,0.913,0.991,1.164c0.467,0.27,0.958,0.307,1.546,0.286l1.698,0.001
															c2.258,0.001,4.496,0.003,6.714,0.004c4.435,0.003,8.788,0.005,13.055,0.008c8.533,0.006,16.723,0.012,24.54,0.017
															c31.263,0.035,56.562,0.063,74.054,0.083c8.738,0.021,15.524,0.038,20.134,0.049c2.296,0.011,4.049,0.02,5.236,0.026
															C635.125,405.998,635.73,406.016,635.73,406.016s-0.604,0.018-1.784,0.027c-1.187,0.006-2.94,0.014-5.236,0.026
															c-4.61,0.011-11.396,0.028-20.134,0.049c-17.492,0.02-42.791,0.048-74.054,0.083
															c-7.817,0.005-16.007,0.011-24.54,0.017c-4.267,0.003-8.62,0.005-13.055,0.008c-2.217,0.001-4.456,0.002-6.714,0.004
															l-1.698,0.001c-0.538,0.025-1.228-0.018-1.756-0.34c-0.544-0.3-0.968-0.805-1.184-1.388
															c-0.108-0.292-0.165-0.603-0.167-0.915l-0.001-0.861c-0.008-18.385-0.016-38.03-0.024-58.703
															c-0.005-20.673-0.01-42.375-0.015-64.873c-0.001-11.249-0.003-22.698-0.004-34.317c0-5.809-0.001-11.661-0.001-17.552
															c0-2.945,0-5.901,0-8.865c0-1.482,0-2.967,0-4.454c0.009-0.365-0.028-0.743,0.053-1.164
															c0.082-0.404,0.26-0.787,0.511-1.113c0.497-0.659,1.322-1.053,2.145-1.047c47.705,0.007,93.154,0.014,134.495,0.02
															c2.584,0.001,5.151,0.002,7.703,0.003c1.276,0,2.547,0.001,3.814,0.001c0.644,0.007,1.242-0.014,1.921,0.015
															c0.691,0.069,1.345,0.423,1.782,0.958c0.447,0.522,0.65,1.26,0.608,1.905l-0.001,1.879
															c0,1.25-0.001,2.496-0.001,3.738c-0.001,2.483-0.002,4.949-0.003,7.397c-0.004,9.792-0.009,19.299-0.013,28.491
															c-0.011,18.383-0.022,35.507-0.032,51.141c-0.035,31.263-0.063,56.565-0.083,74.059
															c-0.021,8.739-0.038,15.526-0.049,20.137c-0.005,1.15-0.009,2.164-0.013,3.039c0.042,0.896-0.384,1.603-0.827,1.986
															c-0.451,0.397-0.904,0.529-1.195,0.579C635.883,406.037,635.73,406.016,635.73,406.016z"/>
													</g>
												</g>
											</g>
										</g>
									</g>
								</g>
							</g>
						</g>
					</g>
				</g>
			</g>
		</g>
	</g>
	<g>
		<rect x="486.535" y="238.69" style="fill:#F5F5F5;" width="150.998" height="55.281"/>
		<rect x="489.895" y="219.98" style="fill:#F5F5F5;" width="35.738" height="9.355"/>
		<rect x="602.532" y="219.98" style="fill:#F5F5F5;" width="32.023" height="9.355"/>
		<rect x="564.423" y="219.98" style="fill:#F5F5F5;" width="32.023" height="9.355"/>
		<rect x="495.916" y="322.441" style="fill:#F5F5F5;" width="128.921" height="9.799"/>
		<rect x="495.916" y="303.905" style="fill:#F5F5F5;" width="128.921" height="9.799"/>
		<rect x="495.916" y="360.392" style="fill:#F5F5F5;" width="128.921" height="9.799"/>
		<rect x="495.916" y="341.857" style="fill:#F5F5F5;" width="128.921" height="9.799"/>
	</g>
	<g>
		<g>
			<g>
				<g>
					<polygon style="fill:#FF725E;" points="532.784,287.348 541.456,278.676 556.579,292.46 583.232,265.837 591.284,274.509 
						555.34,309.185 					"/>
				</g>
			</g>
		</g>
	</g>
</g>
<g id="Device_4">
	<g>
		<g>
			<g>
				<g>
					<g>
						<g>
							<g>
								<g>
									<g>
										<g>
											<g>
												<path style="fill:#263238;" d="M685.268,428.15l-63.073-0.037c-7.586-0.004-13.733-6.138-13.731-13.702l0.031-157.674
													c0.002-7.568,6.157-13.702,13.747-13.698l63.073,0.037c7.586,0.005,13.732,6.139,13.731,13.703l-0.031,157.674
													C699.014,422.021,692.858,428.154,685.268,428.15z"/>
											</g>
										</g>
									</g>
								</g>
							</g>
						</g>
					</g>
				</g>
			</g>
			<g>
				<g>
					<g>
						<g>
							<g>
								<g>
									<g>
										<g>
											<path style="fill:#FFFFFF;" d="M685.709,247.776l-12.271-0.057c-1.646-0.007-2.986,1.381-2.993,3.101l-0.01,2.226
												c-0.007,1.72-1.347,3.109-2.993,3.101l-23.919-0.111c-1.645-0.007-2.974-1.408-2.966-3.129l0.01-2.226
												c0.007-1.72-1.321-3.121-2.967-3.129l-4.316-0.02l-10.74-0.05c-5.334-0.024-9.677,4.281-9.7,9.615l-0.655,154.876
												c-0.023,5.332,4.28,9.672,9.611,9.697l63.165,0.292c5.334,0.025,9.677-4.28,9.7-9.615l0.655-154.877
												C695.343,252.141,691.04,247.801,685.709,247.776z"/>
										</g>
									</g>
								</g>
							</g>
						</g>
					</g>
				</g>
			</g>
		</g>
	</g>
	<g>
		<rect x="612.657" y="275.346" style="fill:#F5F5F5;" width="82.196" height="30.093"/>
		<rect x="614.486" y="265.161" style="fill:#F5F5F5;" width="19.454" height="5.092"/>
		<rect x="675.8" y="265.161" style="fill:#F5F5F5;" width="17.432" height="5.092"/>
		<rect x="655.055" y="265.161" style="fill:#F5F5F5;" width="17.432" height="5.092"/>
		<rect x="617.763" y="320.936" style="fill:#F5F5F5;" width="70.178" height="5.334"/>
		<rect x="617.763" y="310.846" style="fill:#F5F5F5;" width="70.178" height="5.334"/>
		<rect x="617.763" y="341.595" style="fill:#F5F5F5;" width="70.178" height="5.334"/>
		<rect x="617.763" y="351.032" style="fill:#F5F5F5;" width="70.178" height="5.334"/>
		<rect x="617.763" y="361.817" style="fill:#F5F5F5;" width="70.178" height="5.334"/>
		<rect x="617.763" y="372.602" style="fill:#F5F5F5;" width="70.178" height="5.334"/>
		<rect x="617.763" y="383.387" style="fill:#F5F5F5;" width="70.178" height="5.334"/>
		<rect x="617.763" y="331.505" style="fill:#F5F5F5;" width="70.178" height="5.334"/>
	</g>
	<g>
		<g>
			<g>
				<g>
					<polygon style="fill:#FF725E;" points="631.497,341.022 638.284,334.235 651.373,345.87 677.067,321.145 683.369,327.932 
						650.404,358.959 					"/>
				</g>
			</g>
		</g>
	</g>
</g>
<g id="Device_1">
	<g>
		<g>
			<g>
				<g>
					<g>
						<g>
							<g>
								<g>
									<g>
										<g>
											<path style="fill:#263238;" d="M297.605,423.859H53.581c-8.045,0-14.567-6.522-14.567-14.567V257.79
												c0-8.045,6.522-14.567,14.567-14.567h244.024c8.045,0,14.567,6.522,14.567,14.567v151.502
												C312.172,417.337,305.65,423.859,297.605,423.859z"/>
										</g>
									</g>
								</g>
							</g>
							<g>
								<g>
									<g>
										<g>
											<path style="fill:#263238;" d="M309.182,427.999H43.44c-8.34,0-15.102-6.761-15.102-15.102v-0.704h295.946v0.704
												C324.284,421.237,317.523,427.999,309.182,427.999z"/>
										</g>
									</g>
								</g>
							</g>
							<g>
								<g>
									<g>
										<g>
											<rect x="46.346" y="250.399" style="fill:#263238;" width="257.73" height="152.545"/>
										</g>
									</g>
								</g>
							</g>
							<g>
								<g>
									<g>
										<g>
											<polygon style="fill:#455A64;" points="148.665,410.499 152.337,416.341 204.013,416.341 207.423,410.499 											"/>
										</g>
									</g>
								</g>
							</g>
						</g>
						<g>
							<g>
								<g>
									<g>
										<g>
											<g>
												<g>
													<g>
														<path style="fill:#EBEBEB;" d="M296.025,402.456H54.928c-1.808,0-3.273-1.466-3.273-3.273V258.836
															c0-1.808,1.465-3.273,3.273-3.273h241.098c1.807,0,3.272,1.465,3.272,3.272v140.348
															C299.297,400.991,297.832,402.456,296.025,402.456z"/>
													</g>
												</g>
											</g>
										</g>
									</g>
									<g>
										<g>
											<g>
												<g>
													<g>
														<polygon style="fill:#FFFFFF;" points="299.032,402.671 51.389,402.671 51.654,266.541 299.032,266.541 
																													"/>
													</g>
												</g>
											</g>
										</g>
									</g>
									<g>
										<g>
											<g>
												<g>
													<g>
														<path style="fill:#263238;" d="M71.965,261.236c0,1.092-0.885,1.978-1.978,1.978c-1.092,0-1.977-0.885-1.977-1.978
															c0-1.092,0.885-1.978,1.977-1.978C71.079,259.259,71.965,260.144,71.965,261.236z"/>
													</g>
												</g>
											</g>
										</g>
									</g>
									<g>
										<g>
											<g>
												<g>
													<g>
														<path style="fill:#263238;" d="M59.978,261.236c0,1.092-0.885,1.978-1.978,1.978c-1.092,0-1.978-0.885-1.978-1.978
															c0-1.092,0.886-1.978,1.978-1.978C59.093,259.259,59.978,260.144,59.978,261.236z"/>
													</g>
												</g>
											</g>
										</g>
									</g>
									<g>
										<g>
											<g>
												<g>
													<g>
														<path style="fill:#263238;" d="M65.732,261.236c0,1.092-0.885,1.978-1.978,1.978c-1.092,0-1.978-0.885-1.978-1.978
															c0-1.092,0.886-1.978,1.978-1.978C64.847,259.259,65.732,260.144,65.732,261.236z"/>
													</g>
												</g>
											</g>
										</g>
									</g>
								</g>
							</g>
						</g>
						<g>
							<g>
								<g>
									<g>
										<path style="fill:#455A64;" d="M309.825,410.499c0,0.098-60.628,0.177-135.399,0.177
											c-74.797,0-135.412-0.079-135.412-0.177c0-0.098,60.615-0.177,135.412-0.177
											C249.197,410.322,309.825,410.402,309.825,410.499z"/>
									</g>
								</g>
							</g>
						</g>
					</g>
				</g>
			</g>
		</g>
		<g>
			<rect x="51.654" y="288.486" style="fill:#F5F5F5;" width="247.643" height="55.281"/>
			<rect x="57.734" y="273.929" style="fill:#F5F5F5;" width="35.738" height="9.355"/>
			<rect x="273.851" y="273.929" style="fill:#F5F5F5;" width="19.569" height="9.355"/>
			<rect x="235.949" y="273.929" style="fill:#F5F5F5;" width="32.023" height="9.355"/>
			<rect x="197.267" y="273.929" style="fill:#F5F5F5;" width="32.023" height="9.355"/>
			<rect x="63.754" y="376.389" style="fill:#F5F5F5;" width="218.261" height="9.799"/>
			<rect x="63.754" y="357.854" style="fill:#F5F5F5;" width="218.261" height="9.799"/>
		</g>
		<g>
			<g>
				<g>
					<g>
						<polygon style="fill:#FF725E;" points="144.084,325.267 152.756,316.595 169.481,331.461 202.311,299.87 210.363,308.542 
							168.242,348.186 						"/>
					</g>
				</g>
			</g>
		</g>
	</g>
</g>
<g id="Objective_00000179627631398374178180000011695899786106142858_">
	<g>
		<circle style="fill:#FF725E;" cx="245.48" cy="138.631" r="69.714"/>
		<circle style="opacity:0.3;" cx="245.48" cy="138.631" r="69.714"/>
		<circle style="fill:#FF725E;" cx="243.603" cy="134.174" r="69.714"/>
		
			<ellipse transform="matrix(0.921 -0.3895 0.3895 0.921 -33.0232 105.4841)" style="fill:#FFFFFF;" cx="243.603" cy="134.174" rx="54.232" ry="54.232"/>
		
			<ellipse transform="matrix(0.7071 -0.7071 0.7071 0.7071 -23.5259 211.5521)" style="fill:#FF725E;" cx="243.603" cy="134.174" rx="38.157" ry="38.157"/>
		
			<ellipse transform="matrix(0.9175 -0.3978 0.3978 0.9175 -33.2708 107.9815)" style="fill:#FFFFFF;" cx="243.603" cy="134.174" rx="20.133" ry="20.133"/>
		<polygon style="fill:#455A64;" points="297.537,77.711 295.642,62.837 310.782,46.634 311.871,62.685 		"/>
		<polygon style="fill:#455A64;" points="330.031,65.875 314.672,64.625 299.277,79.435 314.676,81.081 		"/>
		<path style="opacity:0.3;" d="M243.603,135.345l57.231-40.986c-1.811-2.705-4.708-6.263-7.267-8.983l-49.026,47.403
			L243.603,135.345z"/>
		<g>
			<path style="fill:#263238;" d="M314.142,59.584c-2.394,2.426-4.789,4.852-7.183,7.278c-5.749,5.825-11.498,11.651-17.247,17.476
				c-6.925,7.017-13.85,14.034-20.776,21.052c-6.016,6.096-12.032,12.192-18.049,18.288c-2.922,2.961-5.976,5.837-8.787,8.904
				c-0.04,0.044-0.084,0.085-0.126,0.128c-1.697,1.719,0.953,4.373,2.652,2.652c2.394-2.426,4.788-4.852,7.183-7.278
				c5.749-5.825,11.498-11.651,17.247-17.476c6.925-7.017,13.851-14.034,20.776-21.052c6.016-6.096,12.032-12.192,18.049-18.288
				c2.922-2.961,5.976-5.837,8.787-8.904c0.04-0.044,0.084-0.085,0.126-0.128C318.491,60.517,315.841,57.863,314.142,59.584
				L314.142,59.584z"/>
		</g>
	</g>
</g>
<g id="Character_00000030452983269446377320000012426035173403282057_">
	<g>
		<g>
			<g>
				<g>
					<g>
						<g>
							<g>
								<path style="fill:#263238;" d="M437.874,241.253c-2.36,0.156-4.685-1.684-5.078-4.016c-0.392-2.332,1.204-4.831,3.485-5.456
									c-1.389-1.566-1.637-4.037-0.588-5.848c1.049-1.811,3.316-2.825,5.365-2.4c0.184-2.058,1.511-3.977,3.372-4.875
									c1.861-0.899,4.188-0.745,5.915,0.39c2.373-1.846,6.052-1.744,8.318,0.23c2.022-0.275,4.157,0.897,5.011,2.75
									c0.854,1.853,0.359,4.237-1.163,5.596"/>
							</g>
						</g>
					</g>
					<g>
						<g>
							<g>
								<g>
									<g>
										<g>
											<path style="fill:#99655C;" d="M437.142,241.896c1.353-10.587,10.61-18.358,21.272-17.86l1.059,0.049
												c11.392,1.201,16.736,11.547,15.22,22.901l-3.432,37.961l-0.9,8.951l-25.892-3.056l0.49-9.694
												c0,0-10.902-2.221-10.524-13.206C434.619,262.638,435.883,251.743,437.142,241.896z"/>
										</g>
									</g>
								</g>
							</g>
							<g>
								<g>
									<g>
										<g>
											<g>
												<g>
													<path style="fill:#744A45;" d="M444.87,281.13c0,0,6.992,0.749,14.583-3.538c0,0-3.753,7.743-14.662,6.243
														L444.87,281.13z"/>
												</g>
											</g>
										</g>
									</g>
								</g>
							</g>
							<g>
								<g>
									<g>
										<g>
											<g>
												<g>
													<g>
														<g>
															<g>
																<path style="fill:#263238;" d="M439.556,252.017c-0.068,0.826,0.576,1.566,1.438,1.652
																	c0.861,0.086,1.614-0.511,1.682-1.338c0.068-0.827-0.576-1.567-1.436-1.654
																	C440.378,250.591,439.624,251.191,439.556,252.017z"/>
															</g>
														</g>
													</g>
												</g>
											</g>
										</g>
									</g>
								</g>
							</g>
							<g>
								<g>
									<g>
										<g>
											<g>
												<g>
													<g>
														<g>
															<g>
																<g>
																	<path style="fill:#263238;" d="M439.251,247.378c0.185,0.214,1.413-0.61,3.101-0.527
																		c1.686,0.059,2.884,0.985,3.077,0.787c0.094-0.087-0.087-0.466-0.607-0.883c-0.513-0.416-1.4-0.838-2.451-0.883
																		c-1.051-0.043-1.953,0.302-2.48,0.675C439.352,246.921,439.16,247.282,439.251,247.378z"/>
																</g>
															</g>
														</g>
													</g>
												</g>
											</g>
										</g>
									</g>
								</g>
							</g>
							<g>
								<g>
									<g>
										<g>
											<g>
												<g>
													<g>
														<g>
															<g>
																<path style="fill:#263238;" d="M454.925,252.79c-0.068,0.826,0.576,1.565,1.438,1.652
																	c0.86,0.087,1.614-0.511,1.682-1.338c0.068-0.826-0.576-1.566-1.437-1.653
																	C455.747,251.363,454.992,251.963,454.925,252.79z"/>
															</g>
														</g>
													</g>
												</g>
											</g>
										</g>
									</g>
								</g>
							</g>
							<g>
								<g>
									<g>
										<g>
											<g>
												<g>
													<g>
														<g>
															<g>
																<g>
																	<path style="fill:#263238;" d="M455.821,248.468c0.185,0.214,1.415-0.61,3.101-0.526
																		c1.686,0.059,2.884,0.985,3.077,0.787c0.094-0.087-0.085-0.465-0.608-0.883c-0.512-0.416-1.399-0.838-2.451-0.883
																		c-1.051-0.043-1.954,0.302-2.48,0.674C455.924,248.01,455.73,248.372,455.821,248.468z"/>
																</g>
															</g>
														</g>
													</g>
												</g>
											</g>
										</g>
									</g>
								</g>
							</g>
							<g>
								<g>
									<g>
										<g>
											<g>
												<g>
													<g>
														<g>
															<g>
																<path style="fill:#263238;" d="M449.113,260.695c0.012-0.096-1.028-0.326-2.717-0.623
																	c-0.429-0.064-0.833-0.169-0.891-0.467c-0.087-0.316,0.115-0.772,0.347-1.264c0.454-1.023,0.929-2.096,1.427-3.221
																	c1.988-4.588,3.448-8.369,3.263-8.448c-0.186-0.078-1.947,3.577-3.935,8.165c-0.48,1.132-0.939,2.211-1.375,3.243
																	c-0.186,0.482-0.492,1.024-0.302,1.68c0.101,0.327,0.406,0.576,0.679,0.663c0.272,0.097,0.514,0.113,0.727,0.136
																	C448.042,260.733,449.102,260.79,449.113,260.695z"/>
															</g>
														</g>
													</g>
												</g>
											</g>
										</g>
									</g>
								</g>
							</g>
							<g>
								<g>
									<g>
										<g>
											<g>
												<path style="fill:#263238;" d="M455.461,243.131c0.203,0.438,1.67,0.042,3.453,0.068
													c1.783-0.015,3.268,0.391,3.451-0.046c0.08-0.208-0.218-0.607-0.844-0.98c-0.62-0.372-1.576-0.682-2.645-0.686
													c-1.069-0.002-2.011,0.301-2.615,0.67C455.652,242.525,455.371,242.923,455.461,243.131z"/>
											</g>
										</g>
									</g>
								</g>
							</g>
							<g>
								<g>
									<g>
										<g>
											<g>
												<path style="fill:#263238;" d="M439.495,240.417c0.337,0.4,1.749,0.067,3.424,0.126
													c1.677,0.011,3.081,0.402,3.425,0.017c0.152-0.188-0.053-0.583-0.656-0.974c-0.593-0.39-1.601-0.733-2.753-0.758
													c-1.152-0.023-2.165,0.277-2.766,0.643C439.559,239.837,439.346,240.223,439.495,240.417z"/>
											</g>
										</g>
									</g>
								</g>
							</g>
							<g>
								<g>
									<g>
										<g>
											<path style="fill:#263238;" d="M438.433,236.91c0,0,3.217-6.74,6.608-8.19c4.104-1.755,5.626,2.731,9.501,1.841
												c3.875-0.89,7.794-2.575,11.565,0.564c4.127,3.436,2.017,5.613,2.053,10.497c0.149,19.801,3.495,25.555,4.955,16.3
												c0.16-1.014,3.026-1.692,3.647-5.979c0.805-5.559,1.336-12.328,0.275-16.349c-0.895-3.389-2.691-5.786-5.987-8.49
												c-5.203-4.268-12.604-4.7-17.656-4.429C448.343,222.946,438.377,228.28,438.433,236.91z"/>
										</g>
									</g>
								</g>
							</g>
							<g>
								<g>
									<g>
										<g>
											<path style="fill:#99655C;" d="M472.43,257.591c0.148-1.691,1.671-2.961,3.352-2.722c2.038,0.29,4.263,1.56,3.93,5.784
												c-0.591,7.495-7.993,5.356-7.989,5.14C471.725,265.647,472.155,260.725,472.43,257.591z"/>
										</g>
									</g>
								</g>
							</g>
							<g>
								<g>
									<g>
										<g>
											<path style="fill:#744A45;" d="M473.575,263.102c0.035-0.021,0.124,0.102,0.336,0.22
												c0.207,0.115,0.572,0.212,0.974,0.097c0.815-0.228,1.581-1.433,1.723-2.781c0.073-0.68-0.019-1.341-0.219-1.898
												c-0.186-0.566-0.51-0.977-0.903-1.079c-0.39-0.123-0.691,0.093-0.799,0.297c-0.117,0.202-0.081,0.355-0.122,0.365
												c-0.022,0.017-0.151-0.138-0.066-0.443c0.043-0.146,0.145-0.316,0.332-0.446c0.191-0.132,0.462-0.186,0.737-0.134
												c0.575,0.086,1.053,0.658,1.272,1.269c0.251,0.616,0.37,1.36,0.288,2.125c-0.167,1.507-1.052,2.859-2.16,3.087
												c-0.538,0.096-0.965-0.098-1.179-0.292C473.574,263.285,473.548,263.114,473.575,263.102z"/>
										</g>
									</g>
								</g>
							</g>
						</g>
						<g>
							<g>
								<g>
									<path style="fill:#263238;" d="M472.963,243.041c-1.006,0.62-2.068,1.258-3.248,1.319c-1.18,0.062-2.492-0.676-2.635-1.849
										c-0.064-0.527,0.091-1.127-0.233-1.547c-0.388-0.501-1.151-0.385-1.783-0.348c-2.193,0.129-4.356-1.518-4.813-3.667
										c-0.595,0.807-1.893,0.71-2.71,0.128c-0.817-0.582-1.318-1.496-1.942-2.282c-0.624-0.786-1.518-1.504-2.516-1.409
										c-0.559,0.053-1.093,0.359-1.649,0.284c-0.982-0.134-1.409-1.31-1.512-2.296c-0.104-0.985-0.166-2.132-0.976-2.703
										c-0.75-0.529-1.767-0.291-2.68-0.2c-0.914,0.091-2.075-0.176-2.266-1.075c-0.1-0.471,0.122-0.952,0.399-1.346
										c1.255-1.785,3.842-2.484,5.825-1.572c0.85-2.446,3.26-4.268,5.845-4.419c2.586-0.151,5.191,1.377,6.321,3.708
										c1.654-1.365,3.987-1.862,6.053-1.288c2.066,0.574,3.809,2.202,4.522,4.225c1.848-0.395,3.897,0.408,4.984,1.955
										c1.087,1.546,1.149,3.746,0.152,5.351c1.313,0.834,2.406,2.229,2.361,3.784c-0.045,1.555-1.631,3.032-3.111,2.553
										c0.549,1.238-0.02,2.857-1.224,3.478c-1.204,0.621-2.853,0.148-3.544-1.018"/>
								</g>
							</g>
						</g>
						<g>
							<g>
								<g>
									<g>
										<path style="fill:#455A64;" d="M449.562,226.661c-0.006,0-0.008,0.047-0.005,0.137c0.006,0.091,0.005,0.227,0.029,0.403
											c0.053,0.35,0.168,0.87,0.477,1.472c0.312,0.593,0.806,1.285,1.582,1.852c0.759,0.573,1.816,1.03,3.034,1.021
											l-0.119-0.172c-0.263,0.631-0.235,1.404,0.054,2.079c0.271,0.686,0.721,1.303,1.198,1.906
											c0.246,0.29,0.454,0.628,0.8,0.901c0.336,0.262,0.745,0.424,1.169,0.497c0.841,0.148,1.809-0.069,2.456-0.753
											l-0.277-0.093c0.121,1.501,0.9,3.034,2.206,4.007c0.689,0.549,1.557,0.905,2.427,0.923c0.87,0.032,1.689-0.185,2.454-0.42
											l-0.196-0.098c0.36,0.952,0.942,1.777,1.668,2.4c0.711,0.621,1.68,1.011,2.582,0.834c1.789-0.292,3.033-1.711,3.335-3.087
											l-0.174,0.071c0.857,0.52,1.798,0.61,2.562,0.499c0.774-0.104,1.392-0.41,1.836-0.718
											c0.446-0.315,0.717-0.647,0.882-0.878c0.152-0.241,0.216-0.375,0.208-0.38c-0.036-0.033-0.275,0.559-1.161,1.153
											c-0.441,0.283-1.045,0.56-1.789,0.642c-0.734,0.09-1.625-0.016-2.415-0.513l-0.137-0.086l-0.037,0.158
											c-0.299,1.283-1.495,2.605-3.153,2.857c-0.816,0.152-1.668-0.197-2.342-0.784c-0.678-0.587-1.233-1.382-1.566-2.276
											l-0.053-0.142l-0.144,0.044c-0.753,0.229-1.544,0.431-2.347,0.399c-0.804-0.02-1.583-0.338-2.241-0.858
											c-1.233-0.921-1.965-2.355-2.087-3.776l-0.03-0.357l-0.247,0.264c-0.547,0.585-1.413,0.796-2.169,0.664
											c-0.38-0.064-0.744-0.206-1.036-0.432c-0.286-0.217-0.505-0.551-0.754-0.844c-0.478-0.593-0.915-1.188-1.174-1.825
											c-0.275-0.631-0.302-1.311-0.076-1.883l0.07-0.176l-0.189,0.004c-1.148,0.024-2.167-0.394-2.909-0.932
											c-0.759-0.532-1.254-1.189-1.576-1.757C449.557,227.44,449.616,226.646,449.562,226.661z"/>
									</g>
								</g>
							</g>
						</g>
					</g>
				</g>
			</g>
			<g>
				<g>
					<path style="fill:#263238;" d="M447.193,266.223c-0.027,0.071,0.386,0.328,1.147,0.495c0.755,0.169,1.864,0.194,3.013-0.144
						c1.148-0.342,2.065-0.966,2.606-1.52c0.547-0.554,0.754-0.995,0.693-1.04c-0.139-0.128-1.34,1.344-3.479,1.95
						C449.048,266.621,447.24,266.04,447.193,266.223z"/>
				</g>
			</g>
		</g>
		<g>
			<g>
				<path style="fill:#263238;" d="M422.446,389.105l66.498,0.906c0,0,18.596-7.782,23.705-7.991
					c5.109-0.21,15.251,0.44,19.942,7.991c4.849,7.804,5.527,21.573-9.417,31.579c-14.551,9.744-81.094,18.748-90.216,17.919
					l-16.814-22.57c0,0-0.176-18.498,0-19.379c0.176-0.881,2.995-8.808,2.995-8.808L422.446,389.105z"/>
			</g>
			<g>
				<g>
					<g>
						<g>
							<g>
								<g>
									<g>
										<g>
											<g>
												<g>
													<g>
														<g>
															<g>
																<g>
																	<path style="fill:#FF725E;" d="M459.364,419.008l39.702,14.747l-18.095,49.488
																		c-4.622-2.018-4.752-31.091-4.752-31.091l-25.825-8.405L459.364,419.008z"/>
																</g>
															</g>
														</g>
													</g>
												</g>
											</g>
										</g>
									</g>
								</g>
							</g>
						</g>
					</g>
					<g style="opacity:0.6;">
						<g>
							<g>
								<g>
									<g>
										<g>
											<g>
												<g>
													<g>
														<g>
															<g>
																<g>
																	<g>
																		<path style="fill:#FFFFFF;" d="M479.67,436.066c0.612-0.862,1.931-1.13,2.818-0.554
																			c0.886,0.576,1.171,1.915,0.574,2.788c-0.597,0.873-2.171,1.243-2.987,0.571
																			c-0.816-0.672-1.064-2.262-0.275-2.966"/>
																	</g>
																</g>
															</g>
														</g>
													</g>
												</g>
											</g>
										</g>
									</g>
								</g>
							</g>
						</g>
					</g>
					<g>
						<g>
							<g>
								<g>
									<g>
										<g>
											<g>
												<g>
													<g>
														<g>
															<g>
																<g>
																	<path style="fill:#263238;" d="M499.066,433.755l-4.007-1.488l-15.884,48.104c0,0,0.153,2.554,1.796,2.872
																		L499.066,433.755z"/>
																</g>
															</g>
														</g>
													</g>
												</g>
											</g>
										</g>
									</g>
								</g>
							</g>
						</g>
					</g>
					<g>
						<g>
							<g>
								<g>
									<g>
										<g>
											<g>
												<g>
													<g>
														<g>
															<g>
																<g>
																	<g>
																		<path style="fill:#263238;" d="M475.674,452.863c0.244,0.08,0.796-1.088,2.008-1.993
																			c1.188-0.937,2.459-1.167,2.444-1.424c0.034-0.24-1.542-0.408-2.99,0.714
																			C475.679,451.268,475.433,452.834,475.674,452.863z"/>
																	</g>
																</g>
															</g>
														</g>
													</g>
												</g>
											</g>
										</g>
									</g>
								</g>
							</g>
						</g>
					</g>
					<g>
						<g>
							<g>
								<g>
									<g>
										<g>
											<g>
												<g>
													<g>
														<g>
															<g>
																<g>
																	<g>
																		<path style="fill:#263238;" d="M475.923,458.839c0.214,0.141,1.007-0.755,2.33-1.202
																			c1.309-0.486,2.49-0.289,2.567-0.534c0.121-0.213-1.233-0.898-2.867-0.311
																			C476.315,457.365,475.694,458.749,475.923,458.839z"/>
																	</g>
																</g>
															</g>
														</g>
													</g>
												</g>
											</g>
										</g>
									</g>
								</g>
							</g>
						</g>
					</g>
					<g>
						<g>
							<g>
								<g>
									<g>
										<g>
											<g>
												<g>
													<g>
														<g>
															<g>
																<g>
																	<g>
																		<path style="fill:#263238;" d="M481.057,464.058c0.132-0.201-0.953-0.978-2.503-0.842
																			c-1.552,0.126-2.49,1.074-2.326,1.25c0.149,0.209,1.127-0.265,2.402-0.358
																			C479.901,463.986,480.946,464.289,481.057,464.058z"/>
																	</g>
																</g>
															</g>
														</g>
													</g>
												</g>
											</g>
										</g>
									</g>
								</g>
							</g>
						</g>
					</g>
					<g>
						<g>
							<g>
								<g>
									<g>
										<g>
											<g>
												<g>
													<g>
														<g>
															<g>
																<g>
																	<g>
																		<path style="fill:#263238;" d="M470.001,450.294c0.257-0.021,0.329-1.251,0.922-2.583
																			c0.565-1.344,1.412-2.24,1.251-2.441c-0.124-0.204-1.397,0.507-2.073,2.086
																			C469.413,448.929,469.768,450.344,470.001,450.294z"/>
																	</g>
																</g>
															</g>
														</g>
													</g>
												</g>
											</g>
										</g>
									</g>
								</g>
							</g>
						</g>
					</g>
					<g>
						<g>
							<g>
								<g>
									<g>
										<g>
											<g>
												<g>
													<g>
														<g>
															<g>
																<g>
																	<g>
																		<path style="fill:#263238;" d="M464.56,446.969c0.099,0.039,0.598-0.861,0.893-2.483
																			c0.146-0.807,0.225-1.793,0.151-2.884c-0.037-0.545-0.112-1.116-0.235-1.7c-0.063-0.281-0.112-0.606-0.31-0.961
																			c-0.154-0.36-0.739-0.747-1.245-0.581c-0.473,0.114-0.801,0.503-0.94,0.857c-0.145,0.361-0.18,0.683-0.211,0.977
																			c-0.068,0.6-0.074,1.183-0.035,1.734c0.085,1.103,0.348,2.07,0.665,2.834c0.643,1.537,1.403,2.259,1.48,2.194
																			c0.12-0.081-0.432-0.916-0.883-2.405c-0.224-0.742-0.403-1.652-0.437-2.666c-0.014-0.507,0.009-1.039,0.082-1.583
																			c0.054-0.574,0.213-1.022,0.496-1.071c0.107-0.016,0.144-0.01,0.257,0.156c0.1,0.165,0.161,0.428,0.225,0.706
																			c0.125,0.542,0.213,1.073,0.27,1.583c0.112,1.02,0.103,1.952,0.042,2.732
																			C464.702,445.968,464.428,446.926,464.56,446.969z"/>
																	</g>
																</g>
															</g>
														</g>
													</g>
												</g>
											</g>
										</g>
									</g>
								</g>
							</g>
						</g>
					</g>
					<g>
						<g>
							<g>
								<g>
									<g>
										<g>
											<g>
												<g>
													<g>
														<g>
															<g>
																<g>
																	<g>
																		<path style="fill:#263238;" d="M465.021,446.781c0.069-0.072-0.622-0.868-2.155-1.529
																			c-0.761-0.325-1.731-0.588-2.837-0.654c-0.552-0.03-1.137-0.008-1.735,0.081c-0.595,0.111-1.379,0.226-1.83,1.124
																			c-0.197,0.483,0.036,1.029,0.313,1.288c0.275,0.286,0.55,0.424,0.816,0.587c0.545,0.302,1.115,0.498,1.669,0.612
																			c1.11,0.23,2.144,0.119,2.947-0.122c1.636-0.498,2.293-1.401,2.219-1.451c-0.092-0.125-0.866,0.547-2.369,0.836
																			c-0.741,0.142-1.661,0.174-2.616-0.068c-0.476-0.119-0.96-0.304-1.415-0.569c-0.498-0.27-0.85-0.622-0.724-0.799
																			c0.086-0.247,0.635-0.521,1.129-0.57c0.536-0.092,1.065-0.128,1.568-0.123c1.008,0.017,1.913,0.194,2.649,0.424
																			C464.126,446.31,464.937,446.899,465.021,446.781z"/>
																	</g>
																</g>
															</g>
														</g>
													</g>
												</g>
											</g>
										</g>
									</g>
								</g>
							</g>
						</g>
					</g>
				</g>
			</g>
			<g>
				<g>
					<g>
						<g>
							<g>
								<g>
									<g>
										<g>
											<g>
												<g>
													<g>
														<g>
															<g>
																<g>
																	<path style="fill:#FF725E;" d="M437.454,417.98l-35.577,16.502l20.305,44.368
																		c4.119-2.199,2.124-29.047,2.124-29.047l23.229-9.638L437.454,417.98z"/>
																</g>
															</g>
														</g>
													</g>
												</g>
											</g>
										</g>
									</g>
								</g>
							</g>
						</g>
					</g>
					<g style="opacity:0.6;">
						<g>
							<g>
								<g>
									<g>
										<g>
											<g>
												<g>
													<g>
														<g>
															<g>
																<g>
																	<g>
																		<path style="fill:#FFFFFF;" d="M419.95,435.204c-0.628-0.751-1.865-0.902-2.642-0.306
																			c-0.776,0.596-0.941,1.853-0.327,2.615c0.615,0.762,2.094,0.989,2.799,0.31c0.705-0.68,0.818-2.166,0.038-2.758"
																			/>
																	</g>
																</g>
															</g>
														</g>
													</g>
												</g>
											</g>
										</g>
									</g>
								</g>
							</g>
						</g>
					</g>
					<g>
						<g>
							<g>
								<g>
									<g>
										<g>
											<g>
												<g>
													<g>
														<g>
															<g>
																<g>
																	<path style="fill:#263238;" d="M401.877,434.482l3.591-1.666l18.163,43.251c0,0,0.045,2.369-1.449,2.782
																		L401.877,434.482z"/>
																</g>
															</g>
														</g>
													</g>
												</g>
											</g>
										</g>
									</g>
								</g>
							</g>
						</g>
					</g>
					<g>
						<g>
							<g>
								<g>
									<g>
										<g>
											<g>
												<g>
													<g>
														<g>
															<g>
																<g>
																	<g>
																		<path style="fill:#263238;" d="M424.86,450.419c-0.22,0.092-0.814-0.946-1.998-1.693
																			c-1.165-0.778-2.355-0.898-2.36-1.137c-0.049-0.219,1.394-0.488,2.812,0.441
																			C424.74,448.947,425.081,450.375,424.86,450.419z"/>
																	</g>
																</g>
															</g>
														</g>
													</g>
												</g>
											</g>
										</g>
									</g>
								</g>
							</g>
						</g>
					</g>
					<g>
						<g>
							<g>
								<g>
									<g>
										<g>
											<g>
												<g>
													<g>
														<g>
															<g>
																<g>
																	<g>
																		<path style="fill:#263238;" d="M425.065,455.953c-0.187,0.146-0.985-0.624-2.238-0.94
																			c-1.244-0.354-2.32-0.086-2.409-0.306c-0.127-0.188,1.073-0.919,2.624-0.496
																			C424.596,454.621,425.27,455.854,425.065,455.953z"/>
																	</g>
																</g>
															</g>
														</g>
													</g>
												</g>
											</g>
										</g>
									</g>
								</g>
							</g>
						</g>
					</g>
					<g>
						<g>
							<g>
								<g>
									<g>
										<g>
											<g>
												<g>
													<g>
														<g>
															<g>
																<g>
																	<g>
																		<path style="fill:#263238;" d="M420.706,461.145c-0.137-0.176,0.808-0.973,2.249-0.959
																			c1.442,0.003,2.377,0.81,2.238,0.985c-0.122,0.204-1.06-0.163-2.243-0.155
																			C421.767,460.995,420.825,461.351,420.706,461.145z"/>
																	</g>
																</g>
															</g>
														</g>
													</g>
												</g>
											</g>
										</g>
									</g>
								</g>
							</g>
						</g>
					</g>
					<g>
						<g>
							<g>
								<g>
									<g>
										<g>
											<g>
												<g>
													<g>
														<g>
															<g>
																<g>
																	<g>
																		<path style="fill:#263238;" d="M429.911,447.635c-0.239,0-0.395-1.131-1.039-2.318
																			c-0.62-1.2-1.467-1.965-1.333-2.162c0.099-0.197,1.327,0.366,2.065,1.774
																			C430.354,446.332,430.129,447.664,429.911,447.635z"/>
																	</g>
																</g>
															</g>
														</g>
													</g>
												</g>
											</g>
										</g>
									</g>
								</g>
							</g>
						</g>
					</g>
					<g>
						<g>
							<g>
								<g>
									<g>
										<g>
											<g>
												<g>
													<g>
														<g>
															<g>
																<g>
																	<g>
																		<path style="fill:#263238;" d="M434.691,444.169c-0.088,0.044-0.614-0.751-1.006-2.228
																			c-0.194-0.735-0.338-1.639-0.35-2.651c-0.005-0.506,0.022-1.038,0.093-1.586c0.038-0.264,0.06-0.567,0.216-0.91
																			c0.116-0.344,0.628-0.743,1.107-0.627c0.445,0.071,0.776,0.406,0.93,0.722c0.16,0.322,0.216,0.618,0.266,0.886
																			c0.106,0.549,0.155,1.087,0.158,1.598c0.002,1.024-0.17,1.936-0.408,2.664c-0.482,1.466-1.13,2.187-1.206,2.132
																			c-0.117-0.066,0.332-0.877,0.64-2.284c0.152-0.702,0.252-1.554,0.21-2.493c-0.024-0.469-0.083-0.959-0.191-1.456
																			c-0.091-0.526-0.271-0.928-0.535-0.952c-0.1-0.007-0.134,0.001-0.226,0.163c-0.08,0.16-0.118,0.407-0.156,0.668
																			c-0.076,0.51-0.118,1.006-0.134,1.481c-0.03,0.95,0.047,1.81,0.16,2.525
																			C434.487,443.256,434.81,444.12,434.691,444.169z"/>
																	</g>
																</g>
															</g>
														</g>
													</g>
												</g>
											</g>
										</g>
									</g>
								</g>
							</g>
						</g>
					</g>
					<g>
						<g>
							<g>
								<g>
									<g>
										<g>
											<g>
												<g>
													<g>
														<g>
															<g>
																<g>
																	<g>
																		<path style="fill:#263238;" d="M434.251,444.029c-0.069-0.062,0.511-0.847,1.878-1.568
																			c0.679-0.355,1.556-0.669,2.572-0.81c0.508-0.068,1.049-0.091,1.608-0.051c0.557,0.059,1.29,0.108,1.771,0.904
																			c0.217,0.431,0.041,0.953-0.195,1.211c-0.233,0.284-0.477,0.431-0.71,0.601c-0.481,0.319-0.993,0.541-1.496,0.686
																			c-1.008,0.293-1.971,0.266-2.73,0.102c-1.547-0.341-2.219-1.127-2.154-1.178c0.076-0.122,0.839,0.442,2.248,0.6
																			c0.694,0.078,1.546,0.04,2.41-0.253c0.431-0.145,0.864-0.35,1.265-0.628c0.44-0.285,0.739-0.636,0.61-0.791
																			c-0.097-0.222-0.624-0.435-1.083-0.444c-0.502-0.046-0.992-0.041-1.456,0.001
																			c-0.929,0.089-1.752,0.319-2.414,0.585C435.044,443.53,434.338,444.132,434.251,444.029z"/>
																	</g>
																</g>
															</g>
														</g>
													</g>
												</g>
											</g>
										</g>
									</g>
								</g>
							</g>
						</g>
					</g>
				</g>
			</g>
			<g>
				<path style="fill:#263238;" d="M419.139,388.753c0,0-28.716-10.725-39.286-9.337c-5.91,0.776-15.151,5.285-15.855,12.86
					c-0.705,7.575,1.144,17.708,11.362,22.641c10.218,4.933,50.999,23.233,60.688,26.052c9.689,2.819,33.847,9.419,33.847,9.419
					l9.178-26.155c0,0-50.069-17.336-52.712-19.274c-2.643-1.938-9.337-4.58-9.337-4.58L419.139,388.753z"/>
			</g>
			<g>
				<g>
					<path style="fill:#455A64;" d="M518.961,392.309c-0.002,0.005-0.069-0.013-0.199-0.052c-0.145-0.044-0.336-0.102-0.576-0.175
						c-0.507-0.153-1.257-0.372-2.234-0.604c-0.977-0.229-2.183-0.489-3.599-0.626c-1.417-0.141-3.046-0.147-4.832,0.006
						c-1.784,0.157-3.733,0.479-5.747,1.095c-1.005,0.309-2.029,0.685-3.031,1.183c-1.014,0.495-2.057,1.004-3.126,1.525
						c-4.296,2.053-9.093,4.156-14.203,6.174c-10.233,4.1-20.055,6.045-27.057,7.637c-3.514,0.777-6.354,1.417-8.311,1.882
						c-0.964,0.228-1.72,0.407-2.255,0.534c-0.246,0.056-0.44,0.099-0.588,0.133c-0.133,0.028-0.202,0.04-0.203,0.035
						c-0.001-0.005,0.065-0.027,0.195-0.066c0.146-0.041,0.338-0.095,0.58-0.163c0.512-0.137,1.265-0.347,2.242-0.591
						c1.95-0.502,4.784-1.174,8.292-1.979c6.994-1.647,16.79-3.623,26.992-7.711c5.104-2.016,9.898-4.107,14.194-6.144
						c1.07-0.517,2.114-1.022,3.128-1.512c1.021-0.502,2.06-0.877,3.077-1.184c2.038-0.611,4.004-0.923,5.803-1.067
						c1.8-0.141,3.441-0.118,4.867,0.04c1.429,0.155,2.635,0.433,3.611,0.681c0.977,0.251,1.722,0.49,2.224,0.662
						c0.237,0.085,0.425,0.153,0.568,0.205C518.899,392.276,518.963,392.304,518.961,392.309z"/>
				</g>
			</g>
			<g>
				<g>
					<path style="fill:#455A64;" d="M517.451,388.523c-0.01,0.05-0.874-0.107-2.28-0.258c-1.406-0.153-3.359-0.268-5.512-0.16
						c-2.154,0.113-4.085,0.428-5.467,0.724c-1.383,0.295-2.227,0.539-2.242,0.49c-0.006-0.02,0.198-0.102,0.574-0.232
						c0.375-0.133,0.928-0.297,1.618-0.472c1.379-0.353,3.326-0.706,5.501-0.82c2.175-0.11,4.147,0.042,5.555,0.252
						c0.704,0.104,1.271,0.21,1.658,0.304C517.244,388.443,517.456,388.503,517.451,388.523z"/>
				</g>
			</g>
			<g>
				<g>
					<path style="fill:#455A64;" d="M407.059,396.348c-0.034,0.043-0.829-0.573-2.205-1.425c-1.373-0.854-3.358-1.901-5.684-2.726
						c-2.329-0.818-4.531-1.248-6.137-1.445c-1.606-0.2-2.612-0.219-2.611-0.274c0-0.021,0.252-0.034,0.707-0.037
						c0.456-0.009,1.116,0.02,1.928,0.093c1.624,0.143,3.86,0.543,6.216,1.371c2.352,0.833,4.345,1.926,5.698,2.833
						c0.678,0.453,1.21,0.844,1.559,1.137C406.884,396.164,407.072,396.331,407.059,396.348z"/>
				</g>
			</g>
			<g>
				<g>
					<path style="fill:#455A64;" d="M421.469,435.357c0,0,0.077,0.026,0.224,0.086c0.155,0.065,0.37,0.155,0.652,0.273
						c0.578,0.233,1.414,0.63,2.537,1.061c2.236,0.888,5.542,2.104,9.781,3.498c8.482,2.772,20.676,6.303,35.266,9.978l-0.165,0.088
						c2.72-7.549,5.72-15.878,8.877-24.641l0.086,0.194c-3.521-1.445-7.228-2.967-10.994-4.513
						c-24.234-9.974-46.012-18.937-60.832-25.036l-0.021-0.008l-0.015-0.016c-2.476-2.622-4.754-4.931-6.89-6.795
						c-2.136-1.863-4.1-3.302-5.776-4.352c-1.667-1.067-3.043-1.74-3.963-2.211c-0.463-0.216-0.817-0.381-1.064-0.497
						c-0.239-0.113-0.358-0.178-0.358-0.178s0.127,0.046,0.37,0.151c0.251,0.109,0.609,0.266,1.077,0.471
						c0.929,0.454,2.317,1.112,3.998,2.168c1.69,1.038,3.67,2.468,5.823,4.325c2.152,1.858,4.447,4.163,6.933,6.775l-0.036-0.024
						c14.83,6.076,36.622,15.006,60.871,24.941c3.766,1.547,7.472,3.069,10.993,4.516l0.136,0.056l-0.05,0.138
						c-3.166,8.76-6.176,17.086-8.903,24.632l-0.043,0.119l-0.122-0.031c-14.592-3.701-26.778-7.271-35.251-10.09
						c-4.234-1.418-7.534-2.66-9.762-3.575c-1.119-0.444-1.95-0.855-2.522-1.102c-0.278-0.127-0.491-0.224-0.643-0.294
						C421.54,435.396,421.469,435.357,421.469,435.357z"/>
				</g>
			</g>
		</g>
		<g>
			<g>
				<path style="fill:#FF725E;" d="M492.445,297.236c0,0,8.268,4.763,9.944,10.359c1.017,3.397,8.73,46.866,9.95,55.437
					c1.232,8.654-1.354,14.921-5.009,17.764c-3.655,2.843-14.736,6.631-14.736,6.631l-15.588,5.049l-4.468-11.372l14.839-21.317
					l-1.436-14.36L492.445,297.236z"/>
			</g>
			<g>
				<path style="fill:#FF725E;" d="M476.193,289.725l-6.215-3.546c0,0-5.658,6.619-13.375,5.806
					c-7.717-0.812-12.287-6.718-12.287-6.718l-23.012,4.686v0c-1.544,0.309-4.36,1.285-7.053,5.132
					c-3.004,4.293-17.243,23.326-17.243,23.326h-9.973c-2.749,0-5.273,1.52-6.552,3.953c-1.703,3.241-3.746,7.576-3.547,9.372
					c0.337,3.036-0.248,11.373,3.824,13.975c1.292,0.825,5.912,3.302,9.498,3.133c5.29-0.249,11.435-3.004,14.975-5.48
					c2.998-2.096,9.97-9.342,12.652-12.171l-0.004,0.044l1.722,60.369l60.336-1.718l12.504-92.652
					C492.445,297.236,476.802,289.725,476.193,289.725z"/>
			</g>
			<g>
				<g>
					<path style="fill:#263238;" d="M417.672,305.901c0.085-0.001,0.243,7.482,0.352,16.711c0.109,9.233,0.128,16.715,0.042,16.716
						c-0.086,0.001-0.243-7.48-0.352-16.713C417.605,313.387,417.586,305.902,417.672,305.901z"/>
				</g>
			</g>
			<g>
				<g>
					<path style="fill:#263238;" d="M499.75,354.703c0.003,0.031-0.512,0.082-1.423,0.256c-0.913,0.167-2.216,0.528-3.736,1.19
						c-1.523,0.656-3.23,1.675-4.975,3.005c-1.743,1.334-3.51,2.991-5.24,4.846c-1.727,1.862-3.301,3.707-4.782,5.343
						c-1.479,1.638-2.866,3.069-4.11,4.187c-1.241,1.12-2.314,1.949-3.089,2.472c-0.379,0.273-0.697,0.452-0.903,0.585
						c-0.21,0.128-0.322,0.191-0.328,0.182c-0.006-0.009,0.096-0.09,0.294-0.234c0.195-0.149,0.5-0.343,0.867-0.63
						c0.75-0.551,1.796-1.401,3.011-2.535c1.218-1.132,2.582-2.571,4.046-4.216c1.467-1.643,3.034-3.493,4.768-5.363
						c1.74-1.864,3.525-3.528,5.294-4.862c1.771-1.33,3.509-2.341,5.061-2.979c1.549-0.644,2.875-0.975,3.801-1.107
						c0.459-0.091,0.826-0.094,1.07-0.123C499.62,354.697,499.749,354.692,499.75,354.703z"/>
				</g>
			</g>
			<g>
				<g>
					<path style="fill:#263238;" d="M501.115,350.614c0.008,0.056-0.913,0.183-2.351,0.581c-1.437,0.395-3.379,1.12-5.335,2.281
						c-1.953,1.168-3.516,2.53-4.547,3.606c-1.035,1.075-1.585,1.824-1.63,1.79c-0.017-0.013,0.108-0.208,0.35-0.553
						c0.237-0.348,0.618-0.825,1.121-1.387c1.001-1.125,2.566-2.537,4.549-3.722c1.985-1.179,3.972-1.882,5.438-2.227
						c0.733-0.174,1.334-0.282,1.753-0.325C500.881,350.609,501.112,350.593,501.115,350.614z"/>
				</g>
			</g>
			<g style="opacity:0.3;">
				<g>
					<path d="M388.819,340.017c3.193,0.871,7.03-3.725,9.93-6.601c1.509-1.496,3.078-3.092,3.634-5.143
						c0.459-1.694,0.159-3.522-0.501-5.149c-0.661-1.626-1.128-2.68-2.124-4.126c0.268,2.479,0.878,6.279,0.044,9.395
						c-0.696,2.599-2.343,4.668-4.09,6.629C393.863,337.1,391.676,339.279,388.819,340.017"/>
				</g>
			</g>
			<g>
				<g>
					<path style="fill:#263238;" d="M402.474,337.388c-0.06-0.019,0.31-1.053,0.609-2.784c0.156-0.864,0.258-1.907,0.293-3.066
						c0.014-1.159-0.051-2.435-0.253-3.758c-0.216-1.321-0.547-2.555-0.918-3.654c-0.39-1.092-0.809-2.052-1.224-2.826
						c-0.818-1.555-1.489-2.424-1.438-2.461c0.017-0.013,0.191,0.198,0.491,0.593c0.153,0.195,0.333,0.44,0.518,0.74
						c0.188,0.298,0.418,0.628,0.622,1.023c0.444,0.77,0.89,1.733,1.3,2.835c0.391,1.109,0.735,2.36,0.955,3.701
						c0.205,1.343,0.263,2.639,0.232,3.814c-0.051,1.175-0.178,2.229-0.363,3.098c-0.072,0.439-0.189,0.824-0.276,1.165
						c-0.083,0.343-0.179,0.631-0.264,0.864C402.594,337.141,402.494,337.395,402.474,337.388z"/>
				</g>
			</g>
			<g>
				<g>
					<path style="fill:#263238;" d="M446.829,287.6c0.041,0.081-0.666,0.492-1.406,1.156c-0.746,0.658-1.236,1.313-1.312,1.262
						c-0.07-0.039,0.323-0.802,1.105-1.494C445.995,287.828,446.799,287.525,446.829,287.6z"/>
				</g>
			</g>
			<g>
				<g>
					<path style="fill:#263238;" d="M453.108,291.248c0.065,0.065-0.542,0.717-1.03,1.68c-0.499,0.957-0.675,1.831-0.766,1.816
						c-0.079-0.003-0.035-0.945,0.491-1.957C452.32,291.769,453.06,291.185,453.108,291.248z"/>
				</g>
			</g>
			<g>
				<g>
					<path style="fill:#263238;" d="M463.858,295.033c-0.087,0.019-0.331-0.807-0.691-1.8c-0.356-0.995-0.694-1.786-0.616-1.827
						c0.073-0.039,0.543,0.705,0.907,1.722C463.826,294.143,463.939,295.017,463.858,295.033z"/>
				</g>
			</g>
			<g>
				<g>
					<path style="fill:#263238;" d="M470.775,291.763c-0.092,0.021-0.328-1.033-1.009-2.144c-0.669-1.12-1.492-1.817-1.431-1.888
						c0.039-0.067,0.991,0.552,1.696,1.728C470.746,290.629,470.853,291.76,470.775,291.763z"/>
				</g>
			</g>
			<g>
				<g>
					<path style="fill:#263238;" d="M490.642,311.312c0.085,0.011-0.937,8.257-2.281,18.416
						c-1.345,10.162-2.504,18.388-2.589,18.377c-0.085-0.011,0.936-8.255,2.281-18.417
						C489.398,319.529,490.557,311.301,490.642,311.312z"/>
				</g>
			</g>
		</g>
		<g>
			<g>
				<path style="fill:#263238;" d="M400.224,324.664c0.021,0.001,0.014,0.303-0.018,0.852c-0.005,0.276-0.054,0.608-0.123,0.993
					c-0.033,0.195-0.068,0.401-0.105,0.617c-0.046,0.217-0.112,0.441-0.172,0.68c-0.223,0.96-0.654,2.055-1.189,3.24
					c-0.582,1.163-1.299,2.407-2.217,3.6c-0.929,1.182-1.931,2.216-2.947,3.035c-1.036,0.789-2.035,1.429-2.959,1.785
					c-0.228,0.094-0.442,0.193-0.65,0.268c-0.212,0.059-0.414,0.115-0.605,0.168c-0.186,0.051-0.361,0.098-0.526,0.143
					c-0.163,0.036-0.318,0.044-0.454,0.063c-0.547,0.064-0.848,0.089-0.85,0.068c-0.016-0.084,1.229-0.107,2.998-0.911
					c0.894-0.373,1.861-1.02,2.867-1.806c0.988-0.817,1.967-1.839,2.881-3.002c0.903-1.175,1.617-2.396,2.206-3.536
					c0.541-1.162,0.988-2.233,1.234-3.173C400.137,325.88,400.154,324.658,400.224,324.664z"/>
			</g>
		</g>
		<g>
			<g>
				<g style="opacity:0.3;">
					<g>
						<path d="M488.7,393.672c2.558-1.237,3.14-4.556,3.401-7.385c0.765-8.293,1.53-16.586,2.294-24.878
							c0.36-3.899,0.535-8.35-2.215-11.138c-2.511-2.546-6.501-2.699-10.077-2.688c-22.079,0.064-41.577,0.709-63.656,0.772
							l1.125,38.622L488.7,393.672z"/>
					</g>
				</g>
				<g>
					<g>
						<path style="fill:#E0E0E0;" d="M408.932,354.338l2.351,44.795c0.091,1.727,1.534,3.08,3.283,3.079l71.355,0.125
							c1.753-0.001,3.198-1.361,3.283-3.092l2.723-44.034c0.09-1.828-1.211-4.261-3.063-4.298l-76.583,0.007
							C410.372,350.883,408.833,352.454,408.932,354.338z"/>
					</g>
					<g>
						<g>
							<path style="fill:#263238;" d="M408.932,354.338c0,0-0.005-0.056-0.008-0.168c-0.009-0.112,0.001-0.279,0.027-0.499
								c0.064-0.429,0.249-1.105,0.846-1.745c0.296-0.314,0.692-0.618,1.194-0.812c0.496-0.211,1.1-0.257,1.724-0.24
								c1.257-0.004,2.707-0.009,4.338-0.015c6.535-0.012,15.979-0.03,27.647-0.052c11.674-0.01,25.572-0.023,41.003-0.037
								c0.965-0.001,1.935-0.001,2.911-0.002c0.487-0.022,1.044,0.098,1.475,0.376c0.442,0.271,0.801,0.65,1.089,1.069
								c0.567,0.844,0.903,1.849,0.896,2.889c-0.059,0.999-0.119,2.003-0.178,3.012c-0.248,4.031-0.501,8.148-0.759,12.338
								c-0.517,8.381-1.053,17.058-1.601,25.946l-0.103,1.665c-0.047,0.559-0.039,1.094-0.137,1.677
								c-0.212,1.148-1.072,2.126-2.152,2.525c-0.533,0.213-1.142,0.242-1.675,0.224l-1.641-0.003
								c-1.092-0.002-2.18-0.004-3.265-0.006c-4.337-0.008-8.611-0.017-12.811-0.025c-8.399-0.018-16.5-0.035-24.217-0.051
								c-7.717-0.018-15.051-0.036-21.914-0.053c-1.716-0.004-3.402-0.009-5.058-0.013c-0.414-0.001-0.826-0.002-1.236-0.003
								c-0.409-0.007-0.815,0.017-1.239-0.039c-0.835-0.113-1.611-0.549-2.139-1.182c-0.539-0.626-0.804-1.467-0.796-2.254
								c-0.04-0.779-0.08-1.55-0.119-2.313c-0.078-1.525-0.155-3.017-0.23-4.474c-0.591-11.653-1.069-21.084-1.4-27.61
								c-0.158-3.255-0.281-5.784-0.365-7.507c-0.038-0.854-0.067-1.506-0.087-1.953
								C408.933,354.564,408.932,354.338,408.932,354.338s0.022,0.225,0.051,0.664c0.027,0.446,0.066,1.098,0.118,1.951
								c0.097,1.722,0.24,4.25,0.423,7.504c0.354,6.524,0.866,15.953,1.498,27.605c0.078,1.457,0.158,2.949,0.24,4.474
								c0.041,0.763,0.082,1.534,0.124,2.313c-0.003,0.772,0.243,1.523,0.745,2.113c0.493,0.588,1.214,0.991,1.99,1.095
								c0.382,0.052,0.796,0.029,1.206,0.035c0.41,0,0.822,0.001,1.236,0.001c1.656,0.001,3.342,0.003,5.058,0.004
								c6.863,0.008,14.197,0.016,21.914,0.024c7.717,0.01,15.819,0.022,24.217,0.033c4.199,0.007,8.473,0.013,12.811,0.02
								c1.084,0.002,2.173,0.004,3.265,0.005l1.641,0.003c0.559,0.017,1.068-0.01,1.566-0.204c0.983-0.364,1.766-1.254,1.957-2.296
								c0.088-0.508,0.087-1.088,0.132-1.634l0.103-1.664c0.551-8.887,1.088-17.565,1.608-25.945
								c0.26-4.19,0.516-8.306,0.767-12.338c0.061-1.006,0.121-2.007,0.18-3.003c0.008-0.96-0.31-1.927-0.843-2.717
								c-0.529-0.792-1.366-1.394-2.326-1.322c-0.976-0.001-1.947-0.001-2.911-0.001c-15.431-0.011-29.329-0.021-41.003-0.029
								c-11.668-0.02-21.112-0.036-27.646-0.047c-1.631-0.005-3.081-0.01-4.338-0.014c-0.63-0.021-1.204,0.019-1.695,0.22
								c-0.492,0.185-0.882,0.478-1.176,0.783c-0.593,0.621-0.787,1.283-0.86,1.707C408.915,354.11,408.948,354.338,408.932,354.338
								z"/>
						</g>
					</g>
				</g>
			</g>
			<g>
				<g>
					<path style="fill:#FFFFFF;" d="M455.161,376.186c0,2.321-1.882,4.203-4.203,4.203c-2.321,0-4.203-1.882-4.203-4.203
						c0-2.321,1.882-4.203,4.203-4.203C453.279,371.983,455.161,373.865,455.161,376.186z"/>
				</g>
				<g>
					<g>
						<path style="fill:#263238;" d="M455.161,376.186c-0.035,0.002-0.018-0.374-0.19-1.012c-0.169-0.625-0.595-1.539-1.536-2.242
							c-0.466-0.343-1.052-0.634-1.724-0.749c-0.668-0.11-1.421-0.086-2.135,0.189c-0.715,0.259-1.396,0.746-1.879,1.419
							c-0.498,0.664-0.777,1.516-0.786,2.394c0.008,0.878,0.288,1.73,0.785,2.395c0.484,0.673,1.165,1.161,1.88,1.419
							c0.714,0.275,1.467,0.299,2.135,0.189c0.673-0.115,1.258-0.405,1.724-0.749c0.941-0.703,1.367-1.617,1.536-2.242
							C455.142,376.56,455.126,376.184,455.161,376.186c0.011,0,0.016,0.092,0.018,0.27c0.005,0.177-0.017,0.441-0.091,0.771
							c-0.138,0.651-0.546,1.623-1.52,2.387c-0.482,0.373-1.097,0.693-1.81,0.827c-0.708,0.129-1.511,0.113-2.28-0.173
							c-0.768-0.269-1.503-0.787-2.027-1.508c-0.538-0.711-0.843-1.63-0.851-2.574c0.008-0.945,0.313-1.863,0.851-2.574
							c0.524-0.72,1.259-1.238,2.027-1.507c0.768-0.286,1.571-0.302,2.28-0.173c0.713,0.134,1.328,0.454,1.81,0.827
							c0.974,0.764,1.382,1.736,1.52,2.387c0.074,0.33,0.095,0.594,0.091,0.771C455.177,376.094,455.171,376.186,455.161,376.186z"
							/>
					</g>
				</g>
			</g>
			<g>
				<g>
					<path style="fill:#263238;" d="M411.335,359.296c0.085-0.003,0.437,7.524,0.785,16.811c0.348,9.29,0.561,16.821,0.476,16.824
						c-0.086,0.003-0.437-7.523-0.785-16.813C411.463,366.832,411.25,359.3,411.335,359.296z"/>
				</g>
			</g>
		</g>
		<g>
			<g>
				<path style="fill:#99655C;" d="M389.888,300.851c-0.417-0.354,1.411-7.388,1.411-7.388s-4.841-7.898-4.968-10.446
					c-0.127-2.548,1.911-7.771,1.911-7.771l13.885-3.567c0,0,4.461,8.28,5.351,11.21c0.891,2.93-1.53,12.866-1.53,12.866
					l-2.352,5.096C403.596,300.851,396.503,306.456,389.888,300.851z"/>
			</g>
			<g>
				<g>
					<path style="fill:#99655C;" d="M386.357,284.54c0,0-0.602-1.044-1.462-3.083c-0.879-2.085-1.959-4.129,0-5.295
						c1.152-0.686,2.092-0.33,2.092-0.33s-0.301-1.755,0.748-2.414c1.048-0.659,2.059-0.179,2.059-0.179s-0.331-2.475,1.179-3.525
						c1.893-1.317,3.845-0.11,3.845-0.11s-1.195-10.835-1.299-11.41c-0.381-2.107,0.399-3.971,2.495-3.451
						c0.768,0.19,1.195,1,2.096,4.529c0.901,3.528,2.348,9.551,2.348,9.551s2.439,4.238,3.59,6.536
						c1.152,2.298,3.429,7.531,3.618,8.917c0.491,3.585-1.609,8.331-1.609,8.331l-14.76,0.857
						C391.299,293.463,386.919,285.568,386.357,284.54z"/>
				</g>
				<g>
					<g>
						<path style="fill:#744A45;" d="M387.278,276.299c0.036-0.023,0.47,0.588,1.142,1.594c0.349,0.531,0.741,1.127,1.167,1.776
							c0.216,0.335,0.455,0.692,0.635,1.11c0.18,0.41,0.291,0.913,0.174,1.408c-0.098,0.485-0.446,0.956-0.932,1.093
							c-0.482,0.15-0.951,0.007-1.322-0.163c-0.379-0.174-0.699-0.403-0.986-0.61c-0.29-0.208-0.556-0.409-0.795-0.596
							c-0.478-0.374-0.851-0.695-1.101-0.924s-0.378-0.368-0.365-0.383c0.03-0.035,0.614,0.433,1.597,1.132
							c0.497,0.332,1.073,0.796,1.767,1.121c0.346,0.152,0.75,0.255,1.113,0.134c0.368-0.107,0.634-0.46,0.723-0.872
							c0.098-0.414,0.01-0.838-0.151-1.221c-0.161-0.385-0.385-0.734-0.596-1.074c-0.406-0.662-0.779-1.27-1.111-1.812
							C387.61,276.974,387.242,276.322,387.278,276.299z"/>
					</g>
				</g>
				<g>
					<g>
						<path style="fill:#744A45;" d="M399.383,277.586c-0.08,0.004-0.154-1.057,0.155-2.32c0.302-1.264,0.851-2.174,0.92-2.135
							c0.082,0.04-0.328,0.984-0.619,2.208C399.54,276.56,399.475,277.587,399.383,277.586z"/>
					</g>
				</g>
				<g>
					<g>
						<path style="fill:#99655C;" d="M405.234,280.753c-1.319-1.344-3.097-2.178-4.937-2.577c-1.84-0.399-3.747-0.387-5.623-0.216
							c-1.501,0.137-3.216,0.525-3.9,1.868c-0.704,1.383,0.143,3.165,1.475,3.961c1.332,0.796,2.979,0.827,4.524,0.686
							c1.545-0.14,3.104-0.429,4.637-0.189"/>
					</g>
					<g>
						<g>
							<path style="fill:#744A45;" d="M401.411,284.286c-0.004,0.026-0.416-0.039-1.165-0.031c-0.75,0-1.824,0.137-3.163,0.301
								c-0.67,0.074-1.414,0.136-2.216,0.094c-0.797-0.046-1.671-0.194-2.487-0.625c-0.82-0.423-1.522-1.187-1.847-2.148
								c-0.168-0.477-0.211-1.014-0.105-1.536c0.123-0.518,0.406-1.009,0.814-1.365c0.824-0.728,1.879-0.961,2.837-1.102
								c0.974-0.118,1.907-0.166,2.804-0.169c1.792-0.007,3.41,0.258,4.693,0.71c1.286,0.446,2.229,1.044,2.816,1.52
								c0.296,0.237,0.508,0.441,0.646,0.584c0.135,0.146,0.203,0.226,0.195,0.233c-0.021,0.021-0.308-0.283-0.914-0.722
								c-0.601-0.44-1.543-0.997-2.813-1.408c-1.266-0.417-2.855-0.655-4.621-0.633c-0.881,0.011-1.816,0.066-2.764,0.184
								c-0.932,0.138-1.937,0.376-2.671,1.031c-0.366,0.319-0.612,0.751-0.721,1.202c-0.093,0.457-0.06,0.937,0.092,1.374
								c0.293,0.88,0.938,1.595,1.693,1.992c0.761,0.411,1.595,0.565,2.369,0.62c0.779,0.052,1.511,0.005,2.178-0.055
								c1.334-0.134,2.429-0.24,3.187-0.203c0.379,0.013,0.671,0.051,0.867,0.08C401.311,284.251,401.413,284.276,401.411,284.286z"
								/>
						</g>
					</g>
				</g>
				<g>
					<g>
						<path style="fill:#99655C;" d="M387.385,276.467c1.553,2.358,2.924,4.951,4.233,7.453c0.381,0.728,0.784,1.497,1.483,1.928
							c0.56,0.345,1.949-0.281,2.571-0.494l-4.264-9.703"/>
					</g>
					<g>
						<g>
							<path style="fill:#744A45;" d="M391.408,275.651c0.018-0.008,0.151,0.248,0.379,0.723c0.244,0.525,0.561,1.207,0.944,2.032
								c0.79,1.73,1.873,4.148,3.082,6.886l0.067,0.151l-0.158,0.056c-0.461,0.164-0.955,0.372-1.488,0.506
								c-0.211,0.051-0.426,0.092-0.652,0.098c-0.113,0.002-0.23-0.002-0.349-0.037c-0.121-0.026-0.241-0.102-0.321-0.158
								c-0.36-0.249-0.635-0.58-0.859-0.919c-0.439-0.688-0.748-1.379-1.094-2.02c-0.67-1.29-1.284-2.446-1.816-3.407
								c-0.531-0.962-0.979-1.73-1.291-2.259c-0.311-0.53-0.485-0.823-0.465-0.836c0.016-0.011,0.224,0.26,0.568,0.772
								c0.344,0.511,0.822,1.264,1.379,2.215c0.558,0.95,1.194,2.098,1.879,3.382c0.352,0.634,0.677,1.339,1.094,1.984
								c0.213,0.319,0.466,0.616,0.781,0.833c0.268,0.219,0.682,0.138,1.073,0.051c0.505-0.126,0.984-0.326,1.463-0.496
								l-0.091,0.207c-1.2-2.742-2.249-5.175-2.989-6.927c-0.348-0.84-0.636-1.535-0.858-2.07
								C391.489,275.931,391.39,275.659,391.408,275.651z"/>
						</g>
					</g>
				</g>
				<g>
					<g>
						<path style="fill:#99655C;" d="M390.259,272.769c1.371,3.437,2.741,6.875,4.112,10.312c0.291,0.73,0.591,1.475,1.106,2.068
							c0.515,0.594,1.293,1.018,2.07,0.902c1.071-0.16,1.772-1.296,1.826-2.378c0.054-1.082-0.374-2.121-0.77-3.13
							c-1.23-3.134-2.217-6.364-2.949-9.65"/>
					</g>
					<g>
						<g>
							<path style="fill:#744A45;" d="M395.654,270.893c0.01-0.002,0.046,0.106,0.104,0.314c0.065,0.242,0.145,0.543,0.244,0.911
								c0.213,0.791,0.522,1.935,0.957,3.332c0.434,1.397,0.994,3.047,1.702,4.847c0.343,0.896,0.788,1.85,0.861,2.95
								c0.04,0.543-0.055,1.126-0.311,1.638c-0.25,0.51-0.663,0.986-1.236,1.211c-0.574,0.23-1.223,0.131-1.727-0.14
								c-0.514-0.265-0.921-0.687-1.214-1.143c-0.583-0.929-0.866-1.911-1.244-2.802c-0.702-1.795-1.337-3.417-1.876-4.794
								c-0.512-1.338-0.931-2.436-1.24-3.242c-0.13-0.359-0.237-0.652-0.323-0.887c-0.07-0.204-0.103-0.313-0.093-0.317
								c0.01-0.004,0.062,0.097,0.151,0.294c0.1,0.23,0.224,0.516,0.377,0.866c0.331,0.798,0.782,1.883,1.331,3.206
								c0.557,1.37,1.212,2.984,1.938,4.77c0.383,0.887,0.684,1.881,1.233,2.741c0.277,0.427,0.644,0.8,1.102,1.036
								c0.451,0.24,0.996,0.315,1.473,0.125c0.479-0.186,0.846-0.599,1.072-1.058c0.231-0.466,0.318-0.976,0.284-1.484
								c-0.062-1.022-0.484-1.96-0.824-2.864c-0.696-1.813-1.237-3.477-1.646-4.887c-0.409-1.41-0.687-2.565-0.864-3.366
								c-0.086-0.401-0.151-0.713-0.188-0.926C395.659,271.008,395.644,270.896,395.654,270.893z"/>
						</g>
					</g>
				</g>
			</g>
			<g>
				<g>
					<path style="fill:#99655C;" d="M390.589,296.945c0,0-9.416,27.754-9.788,29.116c-0.372,1.363,1.859,11.275,5.947,13.629
						c4.089,2.354,12.018-7.434,13.01-11.027c0.991-3.593,0-9.664,0-9.664l6.347-23.914"/>
				</g>
			</g>
			<g>
				<g>
					<path style="fill:#744A45;" d="M399.758,292.632c-0.004,0.035-0.351,0.039-0.886-0.116c-0.533-0.153-1.241-0.5-1.873-1.077
						c-0.63-0.579-1.037-1.255-1.235-1.773c-0.201-0.52-0.227-0.866-0.193-0.873c0.09-0.037,0.416,1.321,1.637,2.417
						C398.406,292.331,399.787,292.539,399.758,292.632z"/>
				</g>
			</g>
		</g>
	</g>
</g>
</svg>
